<svg width="701" height="614" viewBox="0 0 701 614" fill="none" xmlns="http://www.w3.org/2000/svg">
    <rect x="295" y="32.5" width="114" height="59" rx="29.5" stroke="#484848"/>
    <path d="M319.344 67.14c-1.157 0-2.058-.34-2.702-1.022-.635-.681-.952-1.657-.952-2.926v-5.53h1.008v5.586c0 .999.224 1.74.672 2.226.448.476 1.106.714 1.974.714.868 0 1.531-.238 1.988-.714.457-.485.686-1.227.686-2.226v-5.586h.98v5.53c0 .85-.145 1.568-.434 2.156a3.054 3.054 0 0 1-1.246 1.344c-.541.299-1.199.448-1.974.448zm6.039-.14v-9.338h3.836c.915 0 1.601.229 2.058.686.467.457.7 1.134.7 2.03 0 .541-.112 1.022-.336 1.442-.224.42-.536.751-.938.994-.401.243-.872.364-1.414.364l.42-.28L332.397 67h-1.19l-2.772-4.284.504.518h-2.548V67h-1.008zm1.008-4.718h2.366c.775 0 1.335-.154 1.68-.462.355-.317.532-.775.532-1.372 0-.56-.13-1.003-.392-1.33-.261-.336-.751-.504-1.47-.504h-2.716v3.668zM334.215 67v-9.338h1.008V67h-1.008zm11.288.14c-.924 0-1.699-.177-2.324-.532-.616-.364-1.083-.9-1.4-1.61-.308-.71-.462-1.596-.462-2.66 0-1.587.35-2.781 1.05-3.584.709-.812 1.754-1.218 3.136-1.218.933 0 1.708.182 2.324.546.625.355 1.092.887 1.4 1.596.317.71.476 1.596.476 2.66 0 1.587-.355 2.786-1.064 3.598-.7.803-1.746 1.204-3.136 1.204zm0-.952c.737 0 1.339-.135 1.806-.406.466-.27.807-.69 1.022-1.26.224-.57.336-1.297.336-2.184 0-.887-.112-1.61-.336-2.17-.215-.57-.556-.99-1.022-1.26-.467-.28-1.069-.42-1.806-.42-.728 0-1.326.14-1.792.42-.467.27-.812.69-1.036 1.26-.215.56-.322 1.283-.322 2.17s.107 1.615.322 2.184c.224.57.569.99 1.036 1.26.466.27 1.064.406 1.792.406zm7.85.812-2.324-6.986h1.064l1.946 6.23-.266.112 1.848-6.342h.966l1.862 6.174h-.196l1.946-6.174h.994L358.869 67h-1.022l-1.862-6.188.182.168-1.792 6.02h-1.022zm9.449-6.426c.224-.112.452-.21.686-.294.242-.093.485-.168.728-.224a7.094 7.094 0 0 1 1.54-.168c.681 0 1.222.103 1.624.308.401.196.69.485.868.868.186.383.28.845.28 1.386V67h-1.008v-4.55c0-.168-.024-.345-.07-.532a1.373 1.373 0 0 0-.238-.532c-.122-.177-.308-.317-.56-.42-.252-.112-.588-.168-1.008-.168-.29 0-.588.023-.896.07a7.085 7.085 0 0 0-.938.21V67h-1.008v-6.426zm10.854 6.636c-.662 0-1.236-.135-1.722-.406-.485-.28-.858-.695-1.12-1.246-.261-.55-.392-1.237-.392-2.058 0-1.204.271-2.105.812-2.702.551-.607 1.302-.91 2.254-.91.747 0 1.344.168 1.792.504.458.336.784.789.98 1.358.196.57.29 1.213.28 1.932h-5.614l.07-.924h4.886l-.392.14c-.028-.7-.205-1.223-.532-1.568-.317-.345-.807-.518-1.47-.518-.457 0-.84.084-1.148.252-.298.168-.522.462-.672.882-.149.41-.224.99-.224 1.736 0 .85.196 1.498.588 1.946.402.439.962.658 1.68.658.346 0 .663-.023.952-.07.29-.056.556-.13.798-.224.243-.093.458-.196.644-.308v1.036a4.92 4.92 0 0 1-1.12.364 6.497 6.497 0 0 1-1.33.126zm4.773-.21v-6.426a9.725 9.725 0 0 1 1.806-.546 7.05 7.05 0 0 1 1.414-.14c.074 0 .149.01.224.028l.224.056v.896a6.236 6.236 0 0 0-.714-.042c-.224 0-.444.014-.658.042-.215.019-.43.047-.644.084l-.644.112V67h-1.008zm7.251.21c-.504 0-.929-.051-1.274-.154a6.432 6.432 0 0 1-1.05-.434v-1.064c.289.159.546.294.77.406.224.112.453.196.686.252.233.047.499.07.798.07.467 0 .845-.103 1.134-.308.299-.205.448-.471.448-.798 0-.261-.075-.462-.224-.602a1.668 1.668 0 0 0-.546-.35 146.7 146.7 0 0 1-.7-.294 38.217 38.217 0 0 1-.826-.238 3.975 3.975 0 0 1-.756-.35 1.837 1.837 0 0 1-.546-.56c-.14-.233-.21-.532-.21-.896 0-.355.07-.658.21-.91.149-.252.341-.457.574-.616.233-.168.495-.29.784-.364a3.46 3.46 0 0 1 .868-.112c.42 0 .779.056 1.078.168.299.112.607.238.924.378v1.008a10.304 10.304 0 0 0-.952-.448 2.486 2.486 0 0 0-.994-.182c-.383 0-.728.08-1.036.238-.299.15-.448.383-.448.7 0 .261.075.471.224.63.159.15.364.27.616.364.252.084.523.168.812.252.233.075.476.159.728.252.252.084.485.2.7.35.215.14.387.327.518.56.14.233.21.532.21.896 0 .495-.126.905-.378 1.232-.252.317-.574.55-.966.7-.383.15-.775.224-1.176.224z" fill="#231F20"/>
    <rect x="284" y="522.5" width="130" height="59" rx="29.5" stroke="#484848"/>
    <path d="M322.97 547.14c-.924 0-1.698-.177-2.324-.532-.616-.364-1.082-.901-1.4-1.61-.308-.709-.462-1.596-.462-2.66 0-1.587.35-2.781 1.05-3.584.71-.812 1.755-1.218 3.136-1.218.934 0 1.708.182 2.324.546.626.355 1.092.887 1.4 1.596.318.709.476 1.596.476 2.66 0 1.587-.354 2.786-1.064 3.598-.7.803-1.745 1.204-3.136 1.204zm0-.952c.738 0 1.34-.135 1.806-.406.467-.271.808-.691 1.022-1.26.224-.569.336-1.297.336-2.184 0-.887-.112-1.61-.336-2.17-.214-.569-.555-.989-1.022-1.26-.466-.28-1.068-.42-1.806-.42-.728 0-1.325.14-1.792.42-.466.271-.812.691-1.036 1.26-.214.56-.322 1.283-.322 2.17s.108 1.615.322 2.184c.224.569.57.989 1.036 1.26.467.271 1.064.406 1.792.406zm8.355.924c-.495 0-.91-.149-1.246-.448-.336-.308-.504-.761-.504-1.358v-4.368h-1.218v-.924h1.218v-1.974h1.008v1.974h1.806v.924h-1.806v4.046c0 .392.061.686.182.882.121.196.369.294.742.294.168 0 .331-.014.49-.042.159-.037.289-.079.392-.126v.952a2.55 2.55 0 0 1-.504.112 3.027 3.027 0 0 1-.56.056zm2.888-.112v-10.08h1.008v3.878l-.112-.266c.354-.196.728-.35 1.12-.462.392-.121.76-.182 1.106-.182.578 0 1.064.107 1.456.322.401.215.704.541.91.98.214.429.322.985.322 1.666V547h-1.008v-4.144c0-.653-.15-1.157-.448-1.512-.299-.355-.747-.532-1.344-.532-.327 0-.658.047-.994.14a4.987 4.987 0 0 0-1.008.42V547h-1.008zm10.937.21c-.663 0-1.237-.135-1.722-.406-.486-.28-.859-.695-1.12-1.246-.262-.551-.392-1.237-.392-2.058 0-1.204.27-2.105.812-2.702.55-.607 1.302-.91 2.254-.91.746 0 1.344.168 1.792.504.457.336.784.789.98 1.358.196.569.289 1.213.28 1.932h-5.614l.07-.924h4.886l-.392.14c-.028-.7-.206-1.223-.532-1.568-.318-.345-.808-.518-1.47-.518-.458 0-.84.084-1.148.252-.299.168-.523.462-.672.882-.15.411-.224.989-.224 1.736 0 .849.196 1.498.588 1.946.401.439.961.658 1.68.658.345 0 .662-.023.952-.07a4.77 4.77 0 0 0 .798-.224c.242-.093.457-.196.644-.308v1.036a4.92 4.92 0 0 1-1.12.364 6.511 6.511 0 0 1-1.33.126zm4.772-.21v-6.426a9.668 9.668 0 0 1 1.806-.546c.457-.093.928-.14 1.414-.14a.91.91 0 0 1 .224.028l.224.056v.896a6.236 6.236 0 0 0-.714-.042c-.224 0-.444.014-.658.042-.215.019-.43.047-.644.084l-.644.112V547h-1.008zm13.062.14c-1.158 0-2.058-.341-2.702-1.022-.635-.681-.952-1.657-.952-2.926v-5.53h1.008v5.586c0 .999.224 1.741.672 2.226.448.476 1.106.714 1.974.714.868 0 1.53-.238 1.988-.714.457-.485.686-1.227.686-2.226v-5.586h.98v5.53c0 .849-.145 1.568-.434 2.156a3.06 3.06 0 0 1-1.246 1.344c-.542.299-1.2.448-1.974.448zm6.039-.14v-9.338h3.836c.915 0 1.601.229 2.058.686.467.457.7 1.134.7 2.03 0 .541-.112 1.022-.336 1.442-.224.42-.537.751-.938.994-.401.243-.873.364-1.414.364l.42-.28 2.688 4.102h-1.19l-2.772-4.284.504.518h-2.548V547h-1.008zm1.008-4.718h2.366c.775 0 1.335-.154 1.68-.462.355-.317.532-.775.532-1.372 0-.56-.131-1.003-.392-1.33-.261-.336-.751-.504-1.47-.504h-2.716v3.668zm7.824 4.718v-9.338h1.008V547h-1.008zm-51.726 20.14c-.924 0-1.699-.177-2.324-.532-.616-.364-1.083-.901-1.4-1.61-.308-.709-.462-1.596-.462-2.66 0-1.587.35-2.781 1.05-3.584.709-.812 1.754-1.218 3.136-1.218.933 0 1.708.182 2.324.546.625.355 1.092.887 1.4 1.596.317.709.476 1.596.476 2.66 0 1.587-.355 2.786-1.064 3.598-.7.803-1.746 1.204-3.136 1.204zm0-.952c.737 0 1.339-.135 1.806-.406.466-.271.807-.691 1.022-1.26.224-.569.336-1.297.336-2.184 0-.887-.112-1.61-.336-2.17-.215-.569-.556-.989-1.022-1.26-.467-.28-1.069-.42-1.806-.42-.728 0-1.326.14-1.792.42-.467.271-.812.691-1.036 1.26-.215.56-.322 1.283-.322 2.17s.107 1.615.322 2.184c.224.569.569.989 1.036 1.26.466.271 1.064.406 1.792.406zm7.85.812-2.324-6.986h1.064l1.946 6.23-.266.112 1.848-6.342h.966l1.862 6.174h-.196l1.946-6.174h.994L339.495 567h-1.022l-1.862-6.188.182.168-1.792 6.02h-1.022zm11.977.21c-.663 0-1.237-.135-1.722-.406-.485-.28-.859-.695-1.12-1.246-.261-.551-.392-1.237-.392-2.058 0-1.204.271-2.105.812-2.702.551-.607 1.302-.91 2.254-.91.747 0 1.344.168 1.792.504.457.336.784.789.98 1.358.196.569.289 1.213.28 1.932h-5.614l.07-.924h4.886l-.392.14c-.028-.7-.205-1.223-.532-1.568-.317-.345-.807-.518-1.47-.518-.457 0-.84.084-1.148.252-.299.168-.523.462-.672.882-.149.411-.224.989-.224 1.736 0 .849.196 1.498.588 1.946.401.439.961.658 1.68.658.345 0 .663-.023.952-.07a4.77 4.77 0 0 0 .798-.224c.243-.093.457-.196.644-.308v1.036c-.336.159-.709.28-1.12.364a6.504 6.504 0 0 1-1.33.126zm4.772-6.636c.224-.112.453-.21.686-.294a5.52 5.52 0 0 1 .728-.224 7.094 7.094 0 0 1 1.54-.168c.682 0 1.223.103 1.624.308.402.196.691.485.868.868.187.383.28.845.28 1.386V567h-1.008v-4.55c0-.168-.023-.345-.07-.532a1.342 1.342 0 0 0-.238-.532c-.121-.177-.308-.317-.56-.42-.252-.112-.588-.168-1.008-.168a5.94 5.94 0 0 0-.896.07c-.308.047-.62.117-.938.21V567h-1.008v-6.426zm10.855 6.636c-.663 0-1.237-.135-1.722-.406-.485-.28-.859-.695-1.12-1.246-.261-.551-.392-1.237-.392-2.058 0-1.204.271-2.105.812-2.702.551-.607 1.302-.91 2.254-.91.747 0 1.344.168 1.792.504.457.336.784.789.98 1.358.196.569.289 1.213.28 1.932h-5.614l.07-.924h4.886l-.392.14c-.028-.7-.205-1.223-.532-1.568-.317-.345-.807-.518-1.47-.518-.457 0-.84.084-1.148.252-.299.168-.523.462-.672.882-.149.411-.224.989-.224 1.736 0 .849.196 1.498.588 1.946.401.439.961.658 1.68.658.345 0 .663-.023.952-.07a4.77 4.77 0 0 0 .798-.224c.243-.093.457-.196.644-.308v1.036c-.336.159-.709.28-1.12.364a6.504 6.504 0 0 1-1.33.126zm4.772-.21v-6.426a9.72 9.72 0 0 1 1.806-.546c.458-.093.929-.14 1.414-.14.075 0 .15.009.224.028l.224.056v.896a6.21 6.21 0 0 0-.714-.042c-.224 0-.443.014-.658.042a7.938 7.938 0 0 0-.644.084l-.644.112V567h-1.008zm7.252.21c-.504 0-.929-.051-1.274-.154a6.432 6.432 0 0 1-1.05-.434v-1.064c.289.159.546.294.77.406.224.112.452.196.686.252.233.047.499.07.798.07.466 0 .844-.103 1.134-.308.298-.205.448-.471.448-.798 0-.261-.075-.462-.224-.602a1.663 1.663 0 0 0-.546-.35 85.377 85.377 0 0 1-.7-.294 40.006 40.006 0 0 1-.826-.238 3.957 3.957 0 0 1-.756-.35 1.834 1.834 0 0 1-.546-.56c-.14-.233-.21-.532-.21-.896 0-.355.07-.658.21-.91.149-.252.34-.457.574-.616.233-.168.494-.289.784-.364a3.44 3.44 0 0 1 .868-.112c.42 0 .779.056 1.078.168.298.112.606.238.924.378v1.008a10.226 10.226 0 0 0-.952-.448 2.495 2.495 0 0 0-.994-.182c-.383 0-.728.079-1.036.238-.299.149-.448.383-.448.7 0 .261.074.471.224.63.158.149.364.271.616.364.252.084.522.168.812.252.233.075.476.159.728.252.252.084.485.201.7.35.214.14.387.327.518.56.14.233.21.532.21.896 0 .495-.126.905-.378 1.232a2.215 2.215 0 0 1-.966.7 3.218 3.218 0 0 1-1.176.224z" fill="#231F20"/>
    <rect x="270" y="165.5" width="159" height="59" rx="4.5" fill="#fff"/>
    <rect x="270" y="165.5" width="159" height="59" rx="4.5" fill="#E0E0E0" fill-opacity=".4"/>
    <rect x="270" y="165.5" width="159" height="59" rx="4.5" stroke="#484848"/>
    <path d="M286.056 190v-9.338h3.094c.812 0 1.442.117 1.89.35.448.224.761.527.938.91.187.373.28.789.28 1.246 0 .401-.06.714-.182.938-.121.224-.27.411-.448.56-.168.14-.331.285-.49.434l-.112-.182c.243.084.504.224.784.42.28.187.518.443.714.77.196.327.294.742.294 1.246 0 .625-.135 1.134-.406 1.526-.27.383-.662.667-1.176.854-.504.177-1.106.266-1.806.266h-3.374zm1.008-.938h2.45c.402 0 .775-.042 1.12-.126.355-.084.64-.252.854-.504.215-.261.322-.639.322-1.134 0-.373-.07-.667-.21-.882a1.235 1.235 0 0 0-.56-.49 2.155 2.155 0 0 0-.756-.21 5.978 5.978 0 0 0-.812-.056h-2.408v3.402zm0-4.354h2.31c.308 0 .602-.028.882-.084.29-.065.528-.201.714-.406.187-.215.28-.541.28-.98 0-.635-.177-1.059-.532-1.274-.354-.224-.844-.336-1.47-.336h-2.184v3.08zm7.713 5.292v-6.426a9.72 9.72 0 0 1 1.806-.546c.458-.093.929-.14 1.414-.14.075 0 .15.009.224.028l.224.056v.896a6.21 6.21 0 0 0-.714-.042c-.224 0-.443.014-.658.042a7.938 7.938 0 0 0-.644.084l-.644.112V190h-1.008zm7.655.21c-1.092 0-1.904-.322-2.436-.966-.522-.653-.784-1.559-.784-2.716 0-1.213.276-2.123.826-2.73.56-.607 1.349-.91 2.366-.91.756 0 1.372.154 1.848.462.476.299.826.723 1.05 1.274.224.541.336 1.176.336 1.904 0 1.148-.28 2.049-.84 2.702-.55.653-1.339.98-2.366.98zm-.014-.924c.57 0 1.013-.121 1.33-.364.318-.252.542-.583.672-.994.14-.42.21-.887.21-1.4 0-.551-.07-1.027-.21-1.428a1.828 1.828 0 0 0-.7-.952c-.317-.224-.751-.336-1.302-.336-.56 0-.998.121-1.316.364a2.02 2.02 0 0 0-.686.98c-.13.401-.196.859-.196 1.372 0 .821.164 1.489.49 2.002.327.504.896.756 1.708.756zm6.454.714-2.324-6.986h1.064l1.946 6.23-.266.112 1.848-6.342h.966l1.862 6.174h-.196l1.946-6.174h.994L314.388 190h-1.022l-1.862-6.188.182.168-1.792 6.02h-1.022zm11.422.21c-.504 0-.928-.051-1.274-.154a6.432 6.432 0 0 1-1.05-.434v-1.064c.29.159.546.294.77.406.224.112.453.196.686.252.234.047.5.07.798.07.467 0 .845-.103 1.134-.308.299-.205.448-.471.448-.798 0-.261-.074-.462-.224-.602a1.663 1.663 0 0 0-.546-.35l-.7-.294a41.89 41.89 0 0 1-.826-.238 4.015 4.015 0 0 1-.756-.35 1.834 1.834 0 0 1-.546-.56c-.14-.233-.21-.532-.21-.896 0-.355.07-.658.21-.91.15-.252.341-.457.574-.616.234-.168.495-.289.784-.364.29-.075.579-.112.868-.112.42 0 .78.056 1.078.168.299.112.607.238.924.378v1.008a10.107 10.107 0 0 0-.952-.448 2.492 2.492 0 0 0-.994-.182c-.382 0-.728.079-1.036.238-.298.149-.448.383-.448.7 0 .261.075.471.224.63a1.8 1.8 0 0 0 .616.364c.252.084.523.168.812.252.234.075.476.159.728.252.252.084.486.201.7.35.215.14.388.327.518.56.14.233.21.532.21.896 0 .495-.126.905-.378 1.232a2.215 2.215 0 0 1-.966.7 3.21 3.21 0 0 1-1.176.224zm7.295 0c-.663 0-1.237-.135-1.722-.406-.485-.28-.859-.695-1.12-1.246-.261-.551-.392-1.237-.392-2.058 0-1.204.271-2.105.812-2.702.551-.607 1.302-.91 2.254-.91.747 0 1.344.168 1.792.504.457.336.784.789.98 1.358.196.569.289 1.213.28 1.932h-5.614l.07-.924h4.886l-.392.14c-.028-.7-.205-1.223-.532-1.568-.317-.345-.807-.518-1.47-.518-.457 0-.84.084-1.148.252-.299.168-.523.462-.672.882-.149.411-.224.989-.224 1.736 0 .849.196 1.498.588 1.946.401.439.961.658 1.68.658.345 0 .663-.023.952-.07a4.77 4.77 0 0 0 .798-.224c.243-.093.457-.196.644-.308v1.036c-.336.159-.709.28-1.12.364a6.504 6.504 0 0 1-1.33.126zm4.772-.21v-6.426a9.72 9.72 0 0 1 1.806-.546c.458-.093.929-.14 1.414-.14.075 0 .15.009.224.028l.224.056v.896a6.21 6.21 0 0 0-.714-.042c-.224 0-.443.014-.658.042a7.938 7.938 0 0 0-.644.084l-.644.112V190h-1.008zm12.222.21c-.663 0-1.237-.135-1.722-.406-.485-.28-.859-.695-1.12-1.246-.261-.551-.392-1.237-.392-2.058 0-1.204.271-2.105.812-2.702.551-.607 1.302-.91 2.254-.91.747 0 1.344.168 1.792.504.457.336.784.789.98 1.358.196.569.289 1.213.28 1.932h-5.614l.07-.924h4.886l-.392.14c-.028-.7-.205-1.223-.532-1.568-.317-.345-.807-.518-1.47-.518-.457 0-.84.084-1.148.252-.299.168-.523.462-.672.882-.149.411-.224.989-.224 1.736 0 .849.196 1.498.588 1.946.401.439.961.658 1.68.658.345 0 .663-.023.952-.07a4.77 4.77 0 0 0 .798-.224c.243-.093.457-.196.644-.308v1.036c-.336.159-.709.28-1.12.364a6.504 6.504 0 0 1-1.33.126zm7.572-3.262L349.859 190h-1.134l2.828-3.808.602.756zm3.038 3.052h-1.288l-5.11-6.986h1.274l5.124 6.986zm-3.5-3.906 2.31-3.08h1.162l-2.912 3.934-.56-.854zm7.312 4.018c-.495 0-.91-.149-1.246-.448-.336-.308-.504-.761-.504-1.358v-4.368h-1.218v-.924h1.218v-1.974h1.008v1.974h1.806v.924h-1.806v4.046c0 .392.06.686.182.882.121.196.368.294.742.294.168 0 .331-.014.49-.042.158-.037.289-.079.392-.126v.952a2.55 2.55 0 0 1-.504.112 3.027 3.027 0 0 1-.56.056zm5.771.098c-.662 0-1.236-.135-1.722-.406-.485-.28-.858-.695-1.12-1.246-.261-.551-.392-1.237-.392-2.058 0-1.204.271-2.105.812-2.702.551-.607 1.302-.91 2.254-.91.747 0 1.344.168 1.792.504.458.336.784.789.98 1.358.196.569.29 1.213.28 1.932h-5.614l.07-.924h4.886l-.392.14c-.028-.7-.205-1.223-.532-1.568-.317-.345-.807-.518-1.47-.518-.457 0-.84.084-1.148.252-.298.168-.522.462-.672.882-.149.411-.224.989-.224 1.736 0 .849.196 1.498.588 1.946.402.439.962.658 1.68.658.346 0 .663-.023.952-.07.29-.056.556-.131.798-.224a4.07 4.07 0 0 0 .644-.308v1.036c-.336.159-.709.28-1.12.364a6.497 6.497 0 0 1-1.33.126zm4.773-6.636c.224-.112.452-.21.686-.294a5.43 5.43 0 0 1 .728-.224 7.094 7.094 0 0 1 1.54-.168c.681 0 1.222.103 1.624.308.401.196.69.485.868.868.186.383.28.845.28 1.386V190h-1.008v-4.55a2.23 2.23 0 0 0-.07-.532 1.37 1.37 0 0 0-.238-.532c-.122-.177-.308-.317-.56-.42-.252-.112-.588-.168-1.008-.168-.29 0-.588.023-.896.07a7.182 7.182 0 0 0-.938.21V190h-1.008v-6.426zm9.944 6.636c-.504 0-.928-.051-1.274-.154a6.432 6.432 0 0 1-1.05-.434v-1.064c.29.159.546.294.77.406.224.112.453.196.686.252.234.047.5.07.798.07.467 0 .845-.103 1.134-.308.299-.205.448-.471.448-.798 0-.261-.074-.462-.224-.602a1.663 1.663 0 0 0-.546-.35l-.7-.294a41.89 41.89 0 0 1-.826-.238 4.015 4.015 0 0 1-.756-.35 1.834 1.834 0 0 1-.546-.56c-.14-.233-.21-.532-.21-.896 0-.355.07-.658.21-.91.15-.252.341-.457.574-.616.234-.168.495-.289.784-.364.29-.075.579-.112.868-.112.42 0 .78.056 1.078.168.299.112.607.238.924.378v1.008a10.107 10.107 0 0 0-.952-.448 2.492 2.492 0 0 0-.994-.182c-.382 0-.728.079-1.036.238-.298.149-.448.383-.448.7 0 .261.075.471.224.63a1.8 1.8 0 0 0 .616.364c.252.084.523.168.812.252.234.075.476.159.728.252.252.084.486.201.7.35.215.14.388.327.518.56.14.233.21.532.21.896 0 .495-.126.905-.378 1.232a2.215 2.215 0 0 1-.966.7 3.21 3.21 0 0 1-1.176.224zm4.467-.21v-6.986h1.008V190h-1.008zm-.056-8.232v-1.106h1.12v1.106h-1.12zm6.233 8.442c-1.092 0-1.904-.322-2.436-.966-.522-.653-.784-1.559-.784-2.716 0-1.213.276-2.123.826-2.73.56-.607 1.349-.91 2.366-.91.756 0 1.372.154 1.848.462.476.299.826.723 1.05 1.274.224.541.336 1.176.336 1.904 0 1.148-.28 2.049-.84 2.702-.55.653-1.339.98-2.366.98zm-.014-.924c.57 0 1.013-.121 1.33-.364.318-.252.542-.583.672-.994.14-.42.21-.887.21-1.4 0-.551-.07-1.027-.21-1.428a1.828 1.828 0 0 0-.7-.952c-.317-.224-.751-.336-1.302-.336-.56 0-.998.121-1.316.364a2.02 2.02 0 0 0-.686.98c-.13.401-.196.859-.196 1.372 0 .821.164 1.489.49 2.002.327.504.896.756 1.708.756zm5.115-5.712c.224-.112.453-.21.686-.294.243-.093.485-.168.728-.224a7.094 7.094 0 0 1 1.54-.168c.681 0 1.223.103 1.624.308.401.196.691.485.868.868.187.383.28.845.28 1.386V190h-1.008v-4.55c0-.168-.023-.345-.07-.532a1.356 1.356 0 0 0-.238-.532c-.121-.177-.308-.317-.56-.42-.252-.112-.588-.168-1.008-.168a5.94 5.94 0 0 0-.896.07 7.182 7.182 0 0 0-.938.21V190h-1.008v-6.426zm9.945 6.636c-.504 0-.929-.051-1.274-.154a6.432 6.432 0 0 1-1.05-.434v-1.064c.289.159.546.294.77.406.224.112.453.196.686.252.233.047.499.07.798.07.467 0 .845-.103 1.134-.308.299-.205.448-.471.448-.798 0-.261-.075-.462-.224-.602a1.663 1.663 0 0 0-.546-.35l-.7-.294a40.006 40.006 0 0 1-.826-.238 3.957 3.957 0 0 1-.756-.35 1.834 1.834 0 0 1-.546-.56c-.14-.233-.21-.532-.21-.896 0-.355.07-.658.21-.91.149-.252.341-.457.574-.616.233-.168.495-.289.784-.364.289-.075.579-.112.868-.112.42 0 .779.056 1.078.168.299.112.607.238.924.378v1.008a10.226 10.226 0 0 0-.952-.448 2.492 2.492 0 0 0-.994-.182c-.383 0-.728.079-1.036.238-.299.149-.448.383-.448.7 0 .261.075.471.224.63a1.8 1.8 0 0 0 .616.364c.252.084.523.168.812.252.233.075.476.159.728.252.252.084.485.201.7.35.215.14.387.327.518.56.14.233.21.532.21.896 0 .495-.126.905-.378 1.232a2.215 2.215 0 0 1-.966.7 3.218 3.218 0 0 1-1.176.224zm3.095 1.162 5.138-11.956h.924l-5.152 11.956h-.91zm-89.47 18.768c-.467 0-.864-.033-1.19-.098a3.9 3.9 0 0 1-.882-.28 21.836 21.836 0 0 1-.854-.42v-1.092c.298.252.7.476 1.204.672.504.196 1.092.294 1.764.294.709 0 1.222-.149 1.54-.448.326-.308.49-.695.49-1.162 0-.392-.108-.705-.322-.938a2.36 2.36 0 0 0-.826-.588 13.942 13.942 0 0 0-1.064-.448 39.006 39.006 0 0 1-.952-.35 4.084 4.084 0 0 1-.84-.476 2.127 2.127 0 0 1-.602-.742c-.15-.308-.224-.691-.224-1.148 0-.252.046-.518.14-.798.102-.28.261-.541.476-.784.224-.243.518-.439.882-.588.373-.149.826-.224 1.358-.224.364 0 .672.028.924.084.261.047.508.121.742.224.233.093.494.21.784.35v1.036c-.243-.14-.476-.266-.7-.378a2.827 2.827 0 0 0-.728-.28 3.56 3.56 0 0 0-.966-.112c-.458 0-.826.065-1.106.196a1.377 1.377 0 0 0-.602.518 1.366 1.366 0 0 0-.182.686c0 .383.084.686.252.91.177.224.42.411.728.56.317.14.681.28 1.092.42.326.112.653.238.98.378a3.6 3.6 0 0 1 .882.504c.27.196.485.448.644.756.168.299.252.672.252 1.12 0 .42-.094.835-.28 1.246-.187.401-.504.737-.952 1.008-.448.261-1.069.392-1.862.392zm5.119-.14v-9.338h2.926c1.456 0 2.548.392 3.276 1.176.738.775 1.106 1.937 1.106 3.486 0 1.549-.368 2.716-1.106 3.5-.728.784-1.82 1.176-3.276 1.176h-2.926zm1.008-.952h1.848c1.195 0 2.063-.299 2.604-.896.542-.597.812-1.54.812-2.828 0-1.288-.27-2.231-.812-2.828-.541-.597-1.409-.896-2.604-.896h-1.848v7.448zm9.226-2.03v-1.316l4.536-5.04h1.288l-5.824 6.356zm-.896 2.982v-9.338h1.008V210h-1.008zm2.464-5.264 4.578 5.264h-1.4l-3.934-4.578.756-.686zm8.026 5.474c-.504 0-.929-.051-1.274-.154a6.432 6.432 0 0 1-1.05-.434v-1.064c.289.159.546.294.77.406.224.112.453.196.686.252.233.047.499.07.798.07.467 0 .845-.103 1.134-.308.299-.205.448-.471.448-.798 0-.261-.075-.462-.224-.602a1.663 1.663 0 0 0-.546-.35l-.7-.294a40.006 40.006 0 0 1-.826-.238 3.957 3.957 0 0 1-.756-.35 1.834 1.834 0 0 1-.546-.56c-.14-.233-.21-.532-.21-.896 0-.355.07-.658.21-.91.149-.252.341-.457.574-.616.233-.168.495-.289.784-.364.289-.075.579-.112.868-.112.42 0 .779.056 1.078.168.299.112.607.238.924.378v1.008a10.226 10.226 0 0 0-.952-.448 2.492 2.492 0 0 0-.994-.182c-.383 0-.728.079-1.036.238-.299.149-.448.383-.448.7 0 .261.075.471.224.63a1.8 1.8 0 0 0 .616.364c.252.084.523.168.812.252.233.075.476.159.728.252.252.084.485.201.7.35.215.14.387.327.518.56.14.233.21.532.21.896 0 .495-.126.905-.378 1.232a2.215 2.215 0 0 1-.966.7 3.218 3.218 0 0 1-1.176.224zm3.095 1.162 5.138-11.956h.924l-5.152 11.956h-.91zm6.136-1.372 3.724-9.338h1.008l3.71 9.338h-1.078l-3.234-8.4.21-.028-3.248 8.428h-1.092zm1.638-2.912.434-.966h4.578l.07.966h-5.082zm10.942 3.108a3.38 3.38 0 0 1-.7-.084 6.75 6.75 0 0 1-.742-.21 5.44 5.44 0 0 1-.644-.266l.35-.35v3.752h-1.008v-8.764c0-.289.089-.523.266-.7.187-.177.425-.313.714-.406.289-.103.597-.173.924-.21.327-.047.635-.07.924-.07.56 0 1.087.117 1.582.35.495.233.896.63 1.204 1.19.308.551.462 1.302.462 2.254 0 .719-.131 1.344-.392 1.876a2.77 2.77 0 0 1-1.12 1.218c-.495.28-1.101.42-1.82.42zm0-.924c.513 0 .933-.107 1.26-.322.336-.224.588-.532.756-.924.168-.392.252-.84.252-1.344 0-.504-.056-.975-.168-1.414a1.937 1.937 0 0 0-.644-1.05c-.317-.271-.779-.406-1.386-.406-.485 0-.91.056-1.274.168-.355.112-.532.271-.532.476v4.326c.289.168.579.294.868.378.289.075.579.112.868.112zm7.971.924a3.38 3.38 0 0 1-.7-.084 6.75 6.75 0 0 1-.742-.21 5.44 5.44 0 0 1-.644-.266l.35-.35v3.752h-1.008v-8.764c0-.289.089-.523.266-.7.187-.177.425-.313.714-.406.289-.103.597-.173.924-.21.327-.047.635-.07.924-.07.56 0 1.087.117 1.582.35.495.233.896.63 1.204 1.19.308.551.462 1.302.462 2.254 0 .719-.131 1.344-.392 1.876a2.77 2.77 0 0 1-1.12 1.218c-.495.28-1.101.42-1.82.42zm0-.924c.513 0 .933-.107 1.26-.322.336-.224.588-.532.756-.924.168-.392.252-.84.252-1.344 0-.504-.056-.975-.168-1.414a1.937 1.937 0 0 0-.644-1.05c-.317-.271-.779-.406-1.386-.406-.485 0-.91.056-1.274.168-.355.112-.532.271-.532.476v4.326c.289.168.579.294.868.378.289.075.579.112.868.112zm7.201.938c-.504 0-.929-.051-1.274-.154a6.432 6.432 0 0 1-1.05-.434v-1.064c.289.159.546.294.77.406.224.112.452.196.686.252.233.047.499.07.798.07.466 0 .844-.103 1.134-.308.298-.205.448-.471.448-.798 0-.261-.075-.462-.224-.602a1.663 1.663 0 0 0-.546-.35 85.377 85.377 0 0 1-.7-.294 40.006 40.006 0 0 1-.826-.238 3.957 3.957 0 0 1-.756-.35 1.834 1.834 0 0 1-.546-.56c-.14-.233-.21-.532-.21-.896 0-.355.07-.658.21-.91.149-.252.34-.457.574-.616.233-.168.494-.289.784-.364a3.44 3.44 0 0 1 .868-.112c.42 0 .779.056 1.078.168.298.112.606.238.924.378v1.008a10.226 10.226 0 0 0-.952-.448 2.495 2.495 0 0 0-.994-.182c-.383 0-.728.079-1.036.238-.299.149-.448.383-.448.7 0 .261.074.471.224.63.158.149.364.271.616.364.252.084.522.168.812.252.233.075.476.159.728.252.252.084.485.201.7.35.214.14.387.327.518.56.14.233.21.532.21.896 0 .495-.126.905-.378 1.232a2.215 2.215 0 0 1-.966.7 3.218 3.218 0 0 1-1.176.224z" fill="#231F20"/>
    <rect x="270" y="263.5" width="159" height="59" rx="4.5" fill="#fff"/>
    <rect x="270" y="263.5" width="159" height="59" rx="4.5" fill="#E0E0E0" fill-opacity=".4"/>
    <rect x="270" y="263.5" width="159" height="59" rx="4.5" stroke="#484848"/>
    <path d="M327.181 298v-9.338h1.008V298h-1.008zm3.321-6.426c.224-.112.453-.21.686-.294.243-.093.485-.168.728-.224a7.094 7.094 0 0 1 1.54-.168c.681 0 1.223.103 1.624.308.401.196.691.485.868.868.187.383.28.845.28 1.386V298h-1.008v-4.55c0-.168-.023-.345-.07-.532a1.356 1.356 0 0 0-.238-.532c-.121-.177-.308-.317-.56-.42-.252-.112-.588-.168-1.008-.168a5.94 5.94 0 0 0-.896.07 7.182 7.182 0 0 0-.938.21V298h-1.008v-6.426zm10.869 6.636a4 4 0 0 1-1.064-.154 2.85 2.85 0 0 1-1.064-.532c-.327-.271-.598-.653-.812-1.148-.206-.504-.308-1.157-.308-1.96 0-1.083.261-1.937.784-2.562.532-.635 1.334-.952 2.408-.952.205 0 .448.028.728.084.28.056.555.126.826.21.27.084.494.173.672.266l-.35.35v-3.752h1.008v8.736a.92.92 0 0 1-.28.672 2.004 2.004 0 0 1-.7.434 4.8 4.8 0 0 1-.924.224 5.487 5.487 0 0 1-.924.084zm.014-.924c.485 0 .905-.056 1.26-.168.364-.112.546-.252.546-.42v-4.382a3.285 3.285 0 0 0-.938-.364 3.772 3.772 0 0 0-.938-.126c-.504 0-.915.112-1.232.336a1.896 1.896 0 0 0-.686.91c-.14.383-.21.831-.21 1.344 0 .504.056.975.168 1.414.112.429.326.779.644 1.05.317.271.779.406 1.386.406zm7.942.924c-.662 0-1.236-.135-1.722-.406-.485-.28-.858-.695-1.12-1.246-.261-.551-.392-1.237-.392-2.058 0-1.204.271-2.105.812-2.702.551-.607 1.302-.91 2.254-.91.747 0 1.344.168 1.792.504.458.336.784.789.98 1.358.196.569.29 1.213.28 1.932h-5.614l.07-.924h4.886l-.392.14c-.028-.7-.205-1.223-.532-1.568-.317-.345-.807-.518-1.47-.518-.457 0-.84.084-1.148.252-.298.168-.522.462-.672.882-.149.411-.224.989-.224 1.736 0 .849.196 1.498.588 1.946.402.439.962.658 1.68.658.346 0 .663-.023.952-.07.29-.056.556-.131.798-.224a4.07 4.07 0 0 0 .644-.308v1.036c-.336.159-.709.28-1.12.364a6.497 6.497 0 0 1-1.33.126zm7.572-3.262L354.603 298h-1.134l2.828-3.808.602.756zm3.038 3.052h-1.288l-5.11-6.986h1.274l5.124 6.986zm-3.5-3.906 2.31-3.08h1.162l-2.912 3.934-.56-.854zm7.642 4.116c-.662 0-1.236-.135-1.722-.406-.485-.28-.858-.695-1.12-1.246-.261-.551-.392-1.237-.392-2.058 0-1.204.271-2.105.812-2.702.551-.607 1.302-.91 2.254-.91.747 0 1.344.168 1.792.504.458.336.784.789.98 1.358.196.569.29 1.213.28 1.932h-5.614l.07-.924h4.886l-.392.14c-.028-.7-.205-1.223-.532-1.568-.317-.345-.807-.518-1.47-.518-.457 0-.84.084-1.148.252-.298.168-.522.462-.672.882-.149.411-.224.989-.224 1.736 0 .849.196 1.498.588 1.946.402.439.962.658 1.68.658.346 0 .663-.023.952-.07.29-.056.556-.131.798-.224a4.07 4.07 0 0 0 .644-.308v1.036c-.336.159-.709.28-1.12.364a6.497 6.497 0 0 1-1.33.126zm4.772-.21v-6.426a9.72 9.72 0 0 1 1.806-.546c.458-.093.929-.14 1.414-.14.075 0 .15.009.224.028l.224.056v.896a6.21 6.21 0 0 0-.714-.042c-.224 0-.443.014-.658.042a7.938 7.938 0 0 0-.644.084l-.644.112V298h-1.008z" fill="#231F20"/>
    <rect x="31" y="263.5" width="86" height="59" rx="4.5" fill="#fff"/>
    <rect x="31" y="263.5" width="86" height="59" rx="4.5" fill="#E0E0E0" fill-opacity=".4"/>
    <rect x="31" y="263.5" width="86" height="59" rx="4.5" stroke="#484848"/>
    <path d="M41.462 298v-9.338h3.093c.813 0 1.443.117 1.89.35.449.224.761.527.938.91.187.373.28.789.28 1.246 0 .401-.06.714-.181.938-.122.224-.271.411-.449.56-.168.14-.33.285-.49.434l-.111-.182c.242.084.503.224.783.42.28.187.518.443.714.77.197.327.294.742.294 1.246 0 .625-.135 1.134-.405 1.526-.271.383-.663.667-1.176.854-.505.177-1.107.266-1.806.266h-3.374zm1.007-.938h2.45c.402 0 .775-.042 1.12-.126.355-.084.64-.252.855-.504.214-.261.322-.639.322-1.134 0-.373-.07-.667-.21-.882a1.239 1.239 0 0 0-.56-.49 2.155 2.155 0 0 0-.756-.21 5.99 5.99 0 0 0-.813-.056H42.47v3.402zm0-4.354h2.31c.308 0 .602-.028.882-.084.29-.065.528-.201.715-.406.186-.215.28-.541.28-.98 0-.635-.178-1.059-.532-1.274-.355-.224-.845-.336-1.47-.336h-2.185v3.08zM51.19 298h-1.008v-9.646h1.008V298zm5.116.21c-1.092 0-1.904-.322-2.436-.966-.522-.653-.784-1.559-.784-2.716 0-1.213.276-2.123.826-2.73.56-.607 1.35-.91 2.366-.91.756 0 1.372.154 1.848.462.476.299.826.723 1.05 1.274.224.541.336 1.176.336 1.904 0 1.148-.28 2.049-.84 2.702-.55.653-1.339.98-2.366.98zm-.014-.924c.57 0 1.013-.121 1.33-.364.318-.252.542-.583.672-.994.14-.42.21-.887.21-1.4 0-.551-.07-1.027-.21-1.428a1.83 1.83 0 0 0-.7-.952c-.317-.224-.75-.336-1.302-.336-.56 0-.998.121-1.316.364a2.019 2.019 0 0 0-.686.98c-.13.401-.196.859-.196 1.372 0 .821.164 1.489.49 2.002.327.504.896.756 1.708.756zm8.041.826c-.373 0-.756-.047-1.148-.14a3.009 3.009 0 0 1-1.064-.532c-.317-.261-.574-.63-.77-1.106-.196-.476-.294-1.087-.294-1.834 0-.747.098-1.353.294-1.82.196-.476.453-.845.77-1.106a2.723 2.723 0 0 1 1.064-.532 4.507 4.507 0 0 1 1.148-.154 5.664 5.664 0 0 1 2.072.392v.966a4.838 4.838 0 0 0-.952-.294 5.154 5.154 0 0 0-1.008-.098c-.83 0-1.437.21-1.82.63-.373.42-.56 1.092-.56 2.016 0 .933.187 1.61.56 2.03.383.411.99.616 1.82.616.345 0 .681-.033 1.008-.098.327-.065.644-.163.952-.294v.98a6.106 6.106 0 0 1-2.072.378zm4.749-4.298 3.066-2.8h1.26l-4.102 3.626-.224-.826zm.224 4.186h-1.008v-9.646h1.008V298zm.28-4.354L73.912 298h-1.344l-3.668-3.71.686-.644zm8.16 4.466c-.374 0-.757-.047-1.149-.14a3.01 3.01 0 0 1-1.064-.532c-.317-.261-.574-.63-.77-1.106-.196-.476-.294-1.087-.294-1.834 0-.747.098-1.353.294-1.82.196-.476.453-.845.77-1.106a2.724 2.724 0 0 1 1.064-.532 4.507 4.507 0 0 1 1.148-.154 5.664 5.664 0 0 1 2.072.392v.966a4.838 4.838 0 0 0-.952-.294 5.152 5.152 0 0 0-1.008-.098c-.83 0-1.437.21-1.82.63-.373.42-.56 1.092-.56 2.016 0 .933.187 1.61.56 2.03.383.411.99.616 1.82.616.346 0 .682-.033 1.008-.098.327-.065.644-.163.952-.294v.98a6.104 6.104 0 0 1-2.072.378zM81.71 298v-10.08h1.008v3.878l-.112-.266c.355-.196.728-.35 1.12-.462a3.76 3.76 0 0 1 1.106-.182c.579 0 1.064.107 1.456.322.401.215.705.541.91.98.215.429.322.985.322 1.666V298h-1.008v-4.144c0-.653-.15-1.157-.448-1.512-.299-.355-.747-.532-1.344-.532-.327 0-.658.047-.994.14a5.006 5.006 0 0 0-1.008.42V298H81.71zm10.46.21c-.307 0-.62-.033-.937-.098a2.874 2.874 0 0 1-.868-.336 1.93 1.93 0 0 1-.644-.644c-.16-.28-.238-.63-.238-1.05 0-.579.107-1.041.322-1.386.224-.355.527-.607.91-.756.392-.159.84-.238 1.344-.238.382 0 .714.023.994.07.28.047.527.117.742.21.224.084.424.182.602.294l.196.924c-.215-.159-.528-.294-.938-.406a4.595 4.595 0 0 0-1.33-.182c-.588 0-1.041.112-1.358.336-.318.224-.476.551-.476.98 0 .345.093.621.28.826.196.205.438.35.728.434.298.084.602.126.91.126.606 0 1.064-.042 1.372-.126.317-.093.476-.299.476-.616v-3.206c0-.541-.16-.938-.476-1.19-.318-.252-.77-.378-1.358-.378-.374 0-.77.056-1.19.168a2.82 2.82 0 0 0-1.064.504v-1.008c.289-.187.676-.327 1.162-.42a6.802 6.802 0 0 1 1.414-.154c.308 0 .592.033.854.098.26.056.494.145.7.266.205.112.378.261.518.448.149.177.26.387.336.63.084.233.126.499.126.798v3.388c0 .495-.15.863-.448 1.106-.29.243-.672.401-1.148.476-.467.075-.971.112-1.512.112zm5.4-.21v-6.986h1.009V298H97.57zm-.055-8.232v-1.106h1.12v1.106h-1.12zm3.363 1.806c.224-.112.452-.21.686-.294a5.43 5.43 0 0 1 .728-.224 7.094 7.094 0 0 1 1.54-.168c.681 0 1.222.103 1.624.308.401.196.69.485.868.868.186.383.28.845.28 1.386V298h-1.008v-4.55a2.23 2.23 0 0 0-.07-.532 1.37 1.37 0 0 0-.238-.532c-.122-.177-.308-.317-.56-.42-.252-.112-.588-.168-1.008-.168-.29 0-.588.023-.896.07a7.182 7.182 0 0 0-.938.21V298h-1.008v-6.426z" fill="#231F20"/>
    <rect x="270" y="393.5" width="159" height="59" rx="4.5" fill="#fff"/>
    <rect x="270" y="393.5" width="159" height="59" rx="4.5" fill="#E0E0E0" fill-opacity=".4"/>
    <rect x="270" y="393.5" width="159" height="59" rx="4.5" stroke="#484848"/>
    <path d="m334.119 428 3.724-9.338h1.008l3.71 9.338h-1.078l-3.234-8.4.21-.028-3.248 8.428h-1.092zm1.638-2.912.434-.966h4.578l.07.966h-5.082zm10.942 3.108a3.38 3.38 0 0 1-.7-.084 6.75 6.75 0 0 1-.742-.21 5.44 5.44 0 0 1-.644-.266l.35-.35v3.752h-1.008v-8.764c0-.289.089-.523.266-.7.187-.177.425-.313.714-.406.289-.103.597-.173.924-.21.327-.047.635-.07.924-.07.56 0 1.087.117 1.582.35.495.233.896.63 1.204 1.19.308.551.462 1.302.462 2.254 0 .719-.131 1.344-.392 1.876a2.77 2.77 0 0 1-1.12 1.218c-.495.28-1.101.42-1.82.42zm0-.924c.513 0 .933-.107 1.26-.322.336-.224.588-.532.756-.924.168-.392.252-.84.252-1.344 0-.504-.056-.975-.168-1.414a1.937 1.937 0 0 0-.644-1.05c-.317-.271-.779-.406-1.386-.406-.485 0-.91.056-1.274.168-.355.112-.532.271-.532.476v4.326c.289.168.579.294.868.378.289.075.579.112.868.112zm7.971.924c-.206 0-.439-.028-.7-.084a6.688 6.688 0 0 1-.742-.21 5.37 5.37 0 0 1-.644-.266l.35-.35v3.752h-1.008v-8.764c0-.289.088-.523.266-.7.186-.177.424-.313.714-.406.289-.103.597-.173.924-.21.326-.047.634-.07.924-.07.56 0 1.087.117 1.582.35.494.233.896.63 1.204 1.19.308.551.462 1.302.462 2.254 0 .719-.131 1.344-.392 1.876a2.775 2.775 0 0 1-1.12 1.218c-.495.28-1.102.42-1.82.42zm0-.924c.513 0 .933-.107 1.26-.322.336-.224.588-.532.756-.924.168-.392.252-.84.252-1.344 0-.504-.056-.975-.168-1.414a1.937 1.937 0 0 0-.644-1.05c-.318-.271-.78-.406-1.386-.406-.486 0-.91.056-1.274.168-.355.112-.532.271-.532.476v4.326c.289.168.578.294.868.378.289.075.578.112.868.112zm7.2.938c-.504 0-.928-.051-1.274-.154a6.432 6.432 0 0 1-1.05-.434v-1.064c.29.159.546.294.77.406.224.112.453.196.686.252.234.047.5.07.798.07.467 0 .845-.103 1.134-.308.299-.205.448-.471.448-.798 0-.261-.074-.462-.224-.602a1.663 1.663 0 0 0-.546-.35l-.7-.294a41.89 41.89 0 0 1-.826-.238 4.015 4.015 0 0 1-.756-.35 1.834 1.834 0 0 1-.546-.56c-.14-.233-.21-.532-.21-.896 0-.355.07-.658.21-.91.15-.252.341-.457.574-.616.234-.168.495-.289.784-.364.29-.075.579-.112.868-.112.42 0 .78.056 1.078.168.299.112.607.238.924.378v1.008a10.107 10.107 0 0 0-.952-.448 2.492 2.492 0 0 0-.994-.182c-.382 0-.728.079-1.036.238-.298.149-.448.383-.448.7 0 .261.075.471.224.63a1.8 1.8 0 0 0 .616.364c.252.084.523.168.812.252.234.075.476.159.728.252.252.084.486.201.7.35.215.14.388.327.518.56.14.233.21.532.21.896 0 .495-.126.905-.378 1.232a2.215 2.215 0 0 1-.966.7 3.21 3.21 0 0 1-1.176.224z" fill="#231F20"/>
    <rect x="584" y="263.5" width="86" height="59" rx="4.5" fill="#fff"/>
    <rect x="584" y="263.5" width="86" height="59" rx="4.5" fill="#E0E0E0" fill-opacity=".4"/>
    <rect x="584" y="263.5" width="86" height="59" rx="4.5" stroke="#484848"/>
    <path d="M620.886 298.14c-1.157 0-2.058-.341-2.702-1.022-.635-.681-.952-1.657-.952-2.926v-5.53h1.008v5.586c0 .999.224 1.741.672 2.226.448.476 1.106.714 1.974.714.868 0 1.531-.238 1.988-.714.457-.485.686-1.227.686-2.226v-5.586h.98v5.53c0 .849-.145 1.568-.434 2.156a3.054 3.054 0 0 1-1.246 1.344c-.541.299-1.199.448-1.974.448zm6.039-.14v-9.338h3.836c.915 0 1.601.229 2.058.686.467.457.7 1.134.7 2.03 0 .541-.112 1.022-.336 1.442-.224.42-.536.751-.938.994-.401.243-.872.364-1.414.364l.42-.28 2.688 4.102h-1.19l-2.772-4.284.504.518h-2.548V298h-1.008zm1.008-4.718h2.366c.775 0 1.335-.154 1.68-.462.355-.317.532-.775.532-1.372 0-.56-.13-1.003-.392-1.33-.261-.336-.751-.504-1.47-.504h-2.716v3.668zm7.824 4.718v-9.338h1.008V298h-1.008zM349.146 163.354a.502.502 0 0 0 .708 0l3.182-3.182a.502.502 0 0 0-.708-.708l-2.828 2.829-2.828-2.829a.502.502 0 0 0-.708.708l3.182 3.182zM349 93v70h1V93h-1zM349.146 393.354a.502.502 0 0 0 .708 0l3.182-3.182a.502.502 0 0 0-.708-.708l-2.828 2.829-2.828-2.829a.502.502 0 0 0-.708.708l3.182 3.182zM349 323v70h1v-70h-1zM349.146 523.354a.502.502 0 0 0 .708 0l3.182-3.182a.502.502 0 0 0-.708-.708l-2.828 2.829-2.828-2.829a.502.502 0 0 0-.708.708l3.182 3.182zM349 453v70h1v-70h-1zM269.854 293.354a.502.502 0 0 0 0-.708l-3.182-3.182a.502.502 0 0 0-.708.708l2.829 2.828-2.829 2.828a.502.502 0 0 0 .708.708l3.182-3.182zM117.5 293.5h152v-1h-152v1zM429.146 292.646a.502.502 0 0 0 0 .708l3.182 3.182a.502.502 0 0 0 .708-.708L430.207 293l2.829-2.828a.502.502 0 0 0-.708-.708l-3.182 3.182zM582.5 292.5h-153v1h153v-1z" fill="#231F20"/>
    <path fill="#fff" d="M338.5 116h21v26h-21z"/>
    <path d="M342.652 134.12c-.992 0-1.764-.292-2.316-.876-.544-.584-.816-1.42-.816-2.508v-4.74h.864v4.788c0 .856.192 1.492.576 1.908.384.408.948.612 1.692.612s1.312-.204 1.704-.612c.392-.416.588-1.052.588-1.908v-4.788h.84v4.74c0 .728-.124 1.344-.372 1.848a2.618 2.618 0 0 1-1.068 1.152c-.464.256-1.028.384-1.692.384zm6.809.06c-.432 0-.796-.044-1.092-.132a5.513 5.513 0 0 1-.9-.372v-.912c.248.136.468.252.66.348.192.096.388.168.588.216.2.04.428.06.684.06.4 0 .724-.088.972-.264.256-.176.384-.404.384-.684 0-.224-.064-.396-.192-.516a1.43 1.43 0 0 0-.468-.3l-.6-.252a33.066 33.066 0 0 1-.708-.204 3.426 3.426 0 0 1-.648-.3 1.575 1.575 0 0 1-.468-.48c-.12-.2-.18-.456-.18-.768 0-.304.06-.564.18-.78a1.64 1.64 0 0 1 .492-.528c.2-.144.424-.248.672-.312.248-.064.496-.096.744-.096.36 0 .668.048.924.144.256.096.52.204.792.324v.864a8.804 8.804 0 0 0-.816-.384 2.132 2.132 0 0 0-.852-.156 1.91 1.91 0 0 0-.888.204c-.256.128-.384.328-.384.6 0 .224.064.404.192.54.136.128.312.232.528.312.216.072.448.144.696.216.2.064.408.136.624.216.216.072.416.172.6.3.184.12.332.28.444.48.12.2.18.456.18.768 0 .424-.108.776-.324 1.056a1.899 1.899 0 0 1-.828.6 2.75 2.75 0 0 1-1.008.192zm6.252 0c-.568 0-1.06-.116-1.476-.348a2.362 2.362 0 0 1-.96-1.068c-.224-.472-.336-1.06-.336-1.764 0-1.032.232-1.804.696-2.316.472-.52 1.116-.78 1.932-.78.64 0 1.152.144 1.536.432.392.288.672.676.84 1.164.168.488.248 1.04.24 1.656h-4.812l.06-.792h4.188l-.336.12c-.024-.6-.176-1.048-.456-1.344-.272-.296-.692-.444-1.26-.444-.392 0-.72.072-.984.216-.256.144-.448.396-.576.756-.128.352-.192.848-.192 1.488 0 .728.168 1.284.504 1.668.344.376.824.564 1.44.564.296 0 .568-.02.816-.06.248-.048.476-.112.684-.192a3.55 3.55 0 0 0 .552-.264v.888c-.288.136-.608.24-.96.312a5.575 5.575 0 0 1-1.14.108zM75.5 194v-.5H75v.5h.5zm-.354 69.354a.5.5 0 0 0 .708 0l3.181-3.182a.501.501 0 0 0-.707-.708l-2.828 2.829-2.828-2.829a.5.5 0 0 0-.707.708l3.181 3.182zM269.5 193.5h-194v1h194v-1zM75 194v69h1v-69h-1zM625.5 194v-.5h.5v.5h-.5zm.354 69.354a.502.502 0 0 1-.708 0l-3.182-3.182a.502.502 0 0 1 .708-.708l2.828 2.829 2.828-2.829a.502.502 0 0 1 .708.708l-3.182 3.182zM429.5 193.5h196v1h-196v-1zm196.5.5v69h-1v-69h1z" fill="#231F20"/>
    <path fill="#fff" d="M115.5 184h120v20h-120z"/>
    <path d="M121.52 199v-8.004h.864V199h-.864zm2.846-5.508c.192-.096.388-.18.588-.252a4.65 4.65 0 0 1 .624-.192 6.081 6.081 0 0 1 1.32-.144c.584 0 1.048.088 1.392.264.344.168.592.416.744.744.16.328.24.724.24 1.188v3.9h-.864v-3.9c0-.144-.02-.296-.06-.456-.032-.16-.1-.312-.204-.456a1.032 1.032 0 0 0-.48-.36c-.216-.096-.504-.144-.864-.144-.248 0-.504.02-.768.06-.264.04-.532.1-.804.18V199h-.864v-5.508zm6.88 5.508v-5.988h.864V199h-.864zm-.048-7.056v-.948h.96v.948h-.96zm4.767 7.152c-.424 0-.78-.128-1.068-.384-.288-.264-.432-.652-.432-1.164v-3.744h-1.044v-.792h1.044v-1.692h.864v1.692h1.548v.792h-1.548v3.468c0 .336.052.588.156.756.104.168.316.252.636.252.144 0 .284-.012.42-.036a1.85 1.85 0 0 0 .336-.108v.816c-.112.04-.256.072-.432.096a2.568 2.568 0 0 1-.48.048zm2.523-.096v-5.988h.864V199h-.864zm-.048-7.056v-.948h.96v.948h-.96zm4.947 7.236a3.98 3.98 0 0 1-.804-.084 2.479 2.479 0 0 1-.744-.288 1.655 1.655 0 0 1-.552-.552c-.136-.24-.204-.54-.204-.9 0-.496.092-.892.276-1.188.192-.304.452-.52.78-.648a3.05 3.05 0 0 1 1.152-.204c.328 0 .612.02.852.06.24.04.452.1.636.18.192.072.364.156.516.252l.168.792c-.184-.136-.452-.252-.804-.348a3.928 3.928 0 0 0-1.14-.156c-.504 0-.892.096-1.164.288-.272.192-.408.472-.408.84 0 .296.08.532.24.708.168.176.376.3.624.372.256.072.516.108.78.108.52 0 .912-.036 1.176-.108.272-.08.408-.256.408-.528v-2.748c0-.464-.136-.804-.408-1.02-.272-.216-.66-.324-1.164-.324-.32 0-.66.048-1.02.144a2.41 2.41 0 0 0-.912.432v-.864c.248-.16.58-.28.996-.36a5.85 5.85 0 0 1 1.212-.132c.264 0 .508.028.732.084.224.048.424.124.6.228.176.096.324.224.444.384.128.152.224.332.288.54.072.2.108.428.108.684v2.904c0 .424-.128.74-.384.948-.248.208-.576.344-.984.408-.4.064-.832.096-1.296.096zm6.465-.084c-.424 0-.78-.128-1.068-.384-.288-.264-.432-.652-.432-1.164v-3.744h-1.044v-.792h1.044v-1.692h.864v1.692h1.548v.792h-1.548v3.468c0 .336.052.588.156.756.104.168.316.252.636.252.144 0 .284-.012.42-.036a1.85 1.85 0 0 0 .336-.108v.816c-.112.04-.256.072-.432.096a2.568 2.568 0 0 1-.48.048zm4.947.084c-.568 0-1.06-.116-1.476-.348a2.362 2.362 0 0 1-.96-1.068c-.224-.472-.336-1.06-.336-1.764 0-1.032.232-1.804.696-2.316.472-.52 1.116-.78 1.932-.78.64 0 1.152.144 1.536.432.392.288.672.676.84 1.164.168.488.248 1.04.24 1.656h-4.812l.06-.792h4.188l-.336.12c-.024-.6-.176-1.048-.456-1.344-.272-.296-.692-.444-1.26-.444-.392 0-.72.072-.984.216-.256.144-.448.396-.576.756-.128.352-.192.848-.192 1.488 0 .728.168 1.284.504 1.668.344.376.824.564 1.44.564.296 0 .568-.02.816-.06.248-.048.476-.112.684-.192a3.55 3.55 0 0 0 .552-.264v.888c-.288.136-.608.24-.96.312a5.575 5.575 0 0 1-1.14.108zm7.631-.18v-8.004h4.908v.816h-4.044v2.76h3.552v.84h-3.552V199h-.864zm6.409 0v-5.508a8.37 8.37 0 0 1 1.548-.468c.392-.08.796-.12 1.212-.12.064 0 .128.008.192.024l.192.048v.768a5.337 5.337 0 0 0-.612-.036c-.192 0-.38.012-.564.036-.184.016-.368.04-.552.072l-.552.096V199h-.864zm6.587.18a3.98 3.98 0 0 1-.804-.084 2.479 2.479 0 0 1-.744-.288 1.655 1.655 0 0 1-.552-.552c-.136-.24-.204-.54-.204-.9 0-.496.092-.892.276-1.188.192-.304.452-.52.78-.648a3.05 3.05 0 0 1 1.152-.204c.328 0 .612.02.852.06.24.04.452.1.636.18.192.072.364.156.516.252l.168.792c-.184-.136-.452-.252-.804-.348a3.928 3.928 0 0 0-1.14-.156c-.504 0-.892.096-1.164.288-.272.192-.408.472-.408.84 0 .296.08.532.24.708.168.176.376.3.624.372.256.072.516.108.78.108.52 0 .912-.036 1.176-.108.272-.08.408-.256.408-.528v-2.748c0-.464-.136-.804-.408-1.02-.272-.216-.66-.324-1.164-.324-.32 0-.66.048-1.02.144a2.41 2.41 0 0 0-.912.432v-.864c.248-.16.58-.28.996-.36a5.85 5.85 0 0 1 1.212-.132c.264 0 .508.028.732.084.224.048.424.124.6.228.176.096.324.224.444.384.128.152.224.332.288.54.072.2.108.428.108.684v2.904c0 .424-.128.74-.384.948-.248.208-.576.344-.984.408-.4.064-.832.096-1.296.096zm7.089-.084c-.32 0-.648-.04-.984-.12a2.574 2.574 0 0 1-.912-.456c-.272-.224-.492-.54-.66-.948-.168-.408-.252-.932-.252-1.572s.084-1.16.252-1.56c.168-.408.388-.724.66-.948.28-.224.584-.376.912-.456.336-.088.664-.132.984-.132a4.83 4.83 0 0 1 1.776.336v.828a4.186 4.186 0 0 0-.816-.252 4.395 4.395 0 0 0-.864-.084c-.712 0-1.232.18-1.56.54-.32.36-.48.936-.48 1.728 0 .8.16 1.38.48 1.74.328.352.848.528 1.56.528.296 0 .584-.028.864-.084.28-.056.552-.14.816-.252v.84a5.234 5.234 0 0 1-1.776.324zm5.282 0c-.424 0-.78-.128-1.068-.384-.288-.264-.432-.652-.432-1.164v-3.744h-1.044v-.792h1.044v-1.692h.864v1.692h1.548v.792h-1.548v3.468c0 .336.052.588.156.756.104.168.316.252.636.252.144 0 .284-.012.42-.036a1.85 1.85 0 0 0 .336-.108v.816c-.112.04-.256.072-.432.096a2.568 2.568 0 0 1-.48.048zm4.936.084c-.936 0-1.632-.276-2.088-.828-.448-.56-.672-1.336-.672-2.328 0-1.04.236-1.82.708-2.34.48-.52 1.156-.78 2.028-.78.648 0 1.176.132 1.584.396.408.256.708.62.9 1.092.192.464.287 1.008.287 1.632 0 .984-.239 1.756-.719 2.316-.472.56-1.148.84-2.028.84zm-.012-.792c.488 0 .868-.104 1.14-.312.272-.216.464-.5.576-.852.12-.36.18-.76.18-1.2 0-.472-.06-.88-.18-1.224a1.57 1.57 0 0 0-.6-.816c-.272-.192-.644-.288-1.116-.288-.48 0-.856.104-1.128.312a1.73 1.73 0 0 0-.588.84 3.794 3.794 0 0 0-.168 1.176c0 .704.14 1.276.42 1.716.28.432.768.648 1.464.648zm6.736.78c-.176 0-.376-.024-.6-.072a5.767 5.767 0 0 1-.636-.18 4.615 4.615 0 0 1-.552-.228l.3-.3v3.216h-.864v-7.512c0-.248.076-.448.228-.6.16-.152.364-.268.612-.348.248-.088.512-.148.792-.18.28-.04.544-.06.792-.06.48 0 .932.1 1.356.3.424.2.768.54 1.032 1.02.264.472.396 1.116.396 1.932 0 .616-.112 1.152-.336 1.608a2.378 2.378 0 0 1-.96 1.044c-.424.24-.944.36-1.56.36zm0-.792c.44 0 .8-.092 1.08-.276a1.76 1.76 0 0 0 .648-.792 2.9 2.9 0 0 0 .216-1.152c0-.432-.048-.836-.144-1.212a1.661 1.661 0 0 0-.552-.9c-.272-.232-.668-.348-1.188-.348-.416 0-.78.048-1.092.144-.304.096-.456.232-.456.408v3.708c.248.144.496.252.744.324.248.064.496.096.744.096zm6.988.804c-.528 0-.98-.092-1.356-.276a1.957 1.957 0 0 1-.864-.804c-.192-.352-.288-.784-.288-1.296v-3.792h.864v3.6c0 .608.132 1.056.396 1.344.272.28.688.42 1.248.42s.972-.14 1.236-.42c.272-.288.408-.736.408-1.344v-3.6h.864v3.792c0 .76-.22 1.348-.66 1.764-.432.408-1.048.612-1.848.612zm6.121 0c-.432 0-.796-.044-1.092-.132a5.513 5.513 0 0 1-.9-.372v-.912c.248.136.468.252.66.348.192.096.388.168.588.216.2.04.428.06.684.06.4 0 .724-.088.972-.264.256-.176.384-.404.384-.684 0-.224-.064-.396-.192-.516a1.43 1.43 0 0 0-.468-.3l-.6-.252a33.066 33.066 0 0 1-.708-.204 3.426 3.426 0 0 1-.648-.3 1.575 1.575 0 0 1-.468-.48c-.12-.2-.18-.456-.18-.768 0-.304.06-.564.18-.78a1.64 1.64 0 0 1 .492-.528c.2-.144.424-.248.672-.312.248-.064.496-.096.744-.096.36 0 .668.048.924.144.256.096.52.204.792.324v.864a8.804 8.804 0 0 0-.816-.384 2.132 2.132 0 0 0-.852-.156 1.91 1.91 0 0 0-.888.204c-.256.128-.384.328-.384.6 0 .224.064.404.192.54.136.128.312.232.528.312.216.072.448.144.696.216.2.064.408.136.624.216.216.072.416.172.6.3.184.12.332.28.444.48.12.2.18.456.18.768 0 .424-.108.776-.324 1.056a1.899 1.899 0 0 1-.828.6 2.75 2.75 0 0 1-1.008.192zm9.145-.084c-.424 0-.78-.128-1.068-.384-.288-.264-.432-.652-.432-1.164v-3.744h-1.044v-.792h1.044v-1.692h.864v1.692h1.548v.792h-1.548v3.468c0 .336.052.588.156.756.104.168.316.252.636.252.144 0 .284-.012.42-.036a1.85 1.85 0 0 0 .336-.108v.816c-.112.04-.256.072-.432.096a2.568 2.568 0 0 1-.48.048zm4.876-2.712L224.619 199h-.972l2.424-3.264.516.648zm2.604 2.616h-1.104l-4.38-5.988h1.092l4.392 5.988zm-3-3.348 1.98-2.64h.996l-2.496 3.372-.48-.732z" fill="#231F20"/>
    <path fill="#fff" d="M490.5 184h74v20h-74z"/>
    <path d="M497.384 195.94V199h-.864v-8.004h2.844c.896 0 1.58.212 2.052.636.48.424.72 1.036.72 1.836s-.24 1.412-.72 1.836c-.472.424-1.156.636-2.052.636h-1.98zm0-.828h1.872c.448 0 .804-.048 1.068-.144.272-.096.476-.224.612-.384.136-.168.224-.348.264-.54a2.367 2.367 0 0 0 0-1.152 1.178 1.178 0 0 0-.264-.528c-.136-.168-.34-.3-.612-.396-.264-.096-.62-.144-1.068-.144h-1.872v3.288zm7.299 3.888h-.864v-8.268h.864V199zm3.989.18a3.98 3.98 0 0 1-.804-.084 2.479 2.479 0 0 1-.744-.288 1.655 1.655 0 0 1-.552-.552c-.136-.24-.204-.54-.204-.9 0-.496.092-.892.276-1.188.192-.304.452-.52.78-.648a3.05 3.05 0 0 1 1.152-.204c.328 0 .612.02.852.06.24.04.452.1.636.18.192.072.364.156.516.252l.168.792c-.184-.136-.452-.252-.804-.348a3.928 3.928 0 0 0-1.14-.156c-.504 0-.892.096-1.164.288-.272.192-.408.472-.408.84 0 .296.08.532.24.708.168.176.376.3.624.372.256.072.516.108.78.108.52 0 .912-.036 1.176-.108.272-.08.408-.256.408-.528v-2.748c0-.464-.136-.804-.408-1.02-.272-.216-.66-.324-1.164-.324-.32 0-.66.048-1.02.144a2.41 2.41 0 0 0-.912.432v-.864c.248-.16.58-.28.996-.36a5.85 5.85 0 0 1 1.212-.132c.264 0 .508.028.732.084.224.048.424.124.6.228.176.096.324.224.444.384.128.152.224.332.288.54.072.2.108.428.108.684v2.904c0 .424-.128.74-.384.948-.248.208-.576.344-.984.408-.4.064-.832.096-1.296.096zm7.089-.084c-.32 0-.648-.04-.984-.12a2.574 2.574 0 0 1-.912-.456c-.272-.224-.492-.54-.66-.948-.168-.408-.252-.932-.252-1.572s.084-1.16.252-1.56c.168-.408.388-.724.66-.948.28-.224.584-.376.912-.456.336-.088.664-.132.984-.132a4.83 4.83 0 0 1 1.776.336v.828a4.186 4.186 0 0 0-.816-.252 4.395 4.395 0 0 0-.864-.084c-.712 0-1.232.18-1.56.54-.32.36-.48.936-.48 1.728 0 .8.16 1.38.48 1.74.328.352.848.528 1.56.528.296 0 .584-.028.864-.084.28-.056.552-.14.816-.252v.84a5.234 5.234 0 0 1-1.776.324zm5.87.084c-.568 0-1.06-.116-1.476-.348a2.362 2.362 0 0 1-.96-1.068c-.224-.472-.336-1.06-.336-1.764 0-1.032.232-1.804.696-2.316.472-.52 1.116-.78 1.932-.78.64 0 1.152.144 1.536.432.392.288.672.676.84 1.164.168.488.248 1.04.24 1.656h-4.812l.06-.792h4.188l-.336.12c-.024-.6-.176-1.048-.456-1.344-.272-.296-.692-.444-1.26-.444-.392 0-.72.072-.984.216-.256.144-.448.396-.576.756-.128.352-.192.848-.192 1.488 0 .728.168 1.284.504 1.668.344.376.824.564 1.44.564.296 0 .568-.02.816-.06.248-.048.476-.112.684-.192a3.55 3.55 0 0 0 .552-.264v.888c-.288.136-.608.24-.96.312a5.575 5.575 0 0 1-1.14.108zm9.263 0c-.432 0-.796-.044-1.092-.132a5.513 5.513 0 0 1-.9-.372v-.912c.248.136.468.252.66.348.192.096.388.168.588.216.2.04.428.06.684.06.4 0 .724-.088.972-.264.256-.176.384-.404.384-.684 0-.224-.064-.396-.192-.516a1.43 1.43 0 0 0-.468-.3l-.6-.252a33.066 33.066 0 0 1-.708-.204 3.426 3.426 0 0 1-.648-.3 1.575 1.575 0 0 1-.468-.48c-.12-.2-.18-.456-.18-.768 0-.304.06-.564.18-.78a1.64 1.64 0 0 1 .492-.528c.2-.144.424-.248.672-.312.248-.064.496-.096.744-.096.36 0 .668.048.924.144.256.096.52.204.792.324v.864a8.804 8.804 0 0 0-.816-.384 2.132 2.132 0 0 0-.852-.156 1.91 1.91 0 0 0-.888.204c-.256.128-.384.328-.384.6 0 .224.064.404.192.54.136.128.312.232.528.312.216.072.448.144.696.216.2.064.408.136.624.216.216.072.416.172.6.3.184.12.332.28.444.48.12.2.18.456.18.768 0 .424-.108.776-.324 1.056a1.899 1.899 0 0 1-.828.6 2.75 2.75 0 0 1-1.008.192zm5.665-.084c-.424 0-.78-.128-1.068-.384-.288-.264-.432-.652-.432-1.164v-3.744h-1.044v-.792h1.044v-1.692h.864v1.692h1.548v.792h-1.548v3.468c0 .336.052.588.156.756.104.168.316.252.636.252.144 0 .284-.012.42-.036a1.85 1.85 0 0 0 .336-.108v.816c-.112.04-.256.072-.432.096a2.568 2.568 0 0 1-.48.048zm2.475-.096v-5.508a8.37 8.37 0 0 1 1.548-.468c.392-.08.796-.12 1.212-.12.064 0 .128.008.192.024l.192.048v.768a5.337 5.337 0 0 0-.612-.036c-.192 0-.38.012-.564.036-.184.016-.368.04-.552.072l-.552.096V199h-.864zm4.572 0v-5.988h.864V199h-.864zm-.048-7.056v-.948h.96v.948h-.96zm2.882 1.548c.192-.096.388-.18.588-.252a4.65 4.65 0 0 1 .624-.192 6.081 6.081 0 0 1 1.32-.144c.584 0 1.048.088 1.392.264.344.168.592.416.744.744.16.328.24.724.24 1.188v3.9h-.864v-3.9c0-.144-.02-.296-.06-.456-.032-.16-.1-.312-.204-.456a1.032 1.032 0 0 0-.48-.36c-.216-.096-.504-.144-.864-.144-.248 0-.504.02-.768.06-.264.04-.532.1-.804.18V199h-.864v-5.508zm9.269 5.688c-.616 0-1.128-.12-1.536-.36-.4-.248-.7-.596-.9-1.044-.2-.456-.3-.992-.3-1.608 0-.688.092-1.244.276-1.668.184-.432.42-.76.708-.984a2.44 2.44 0 0 1 .96-.468 4.201 4.201 0 0 1 1.02-.132c.376 0 .732.052 1.068.156.344.096.624.252.84.468.224.216.336.504.336.864v4.848c0 .24-.036.484-.108.732a1.703 1.703 0 0 1-.396.684c-.184.216-.448.388-.792.516-.336.128-.772.192-1.308.192-.344 0-.66-.032-.948-.096-.288-.064-.54-.124-.756-.18v-.816l.432.108c.168.048.348.088.54.12.2.032.412.048.635.048.545 0 .945-.068 1.201-.204.264-.128.436-.292.516-.492.08-.192.12-.388.12-.588v-.876l.3.3a3.45 3.45 0 0 1-.576.228 7.055 7.055 0 0 1-.708.18c-.24.048-.448.072-.624.072zm0-.792c.256 0 .524-.032.804-.096a3.08 3.08 0 0 0 .804-.324v-3.444c0-.224-.064-.392-.192-.504a.922.922 0 0 0-.492-.24 2.984 2.984 0 0 0-.672-.072c-.584 0-1.024.116-1.32.348a1.643 1.643 0 0 0-.6.9 4.53 4.53 0 0 0-.156 1.212c0 .656.14 1.192.42 1.608.28.408.748.612 1.404.612z" fill="#231F20"/>
    <path fill="#fff" d="M137.5 277h112v30h-112z"/>
    <path d="M143.52 297v-8.004h.864V297h-.864zm2.846-5.508c.192-.096.388-.18.588-.252a4.65 4.65 0 0 1 .624-.192 6.081 6.081 0 0 1 1.32-.144c.584 0 1.048.088 1.392.264.344.168.592.416.744.744.16.328.24.724.24 1.188v3.9h-.864v-3.9c0-.144-.02-.296-.06-.456-.032-.16-.1-.312-.204-.456a1.032 1.032 0 0 0-.48-.36c-.216-.096-.504-.144-.864-.144-.248 0-.504.02-.768.06-.264.04-.532.1-.804.18V297h-.864v-5.508zm9.316 5.688c-.288 0-.592-.044-.912-.132a2.447 2.447 0 0 1-.912-.456c-.28-.232-.512-.56-.696-.984-.176-.432-.264-.992-.264-1.68 0-.928.224-1.66.672-2.196.456-.544 1.144-.816 2.064-.816.176 0 .384.024.624.072.24.048.476.108.708.18.232.072.424.148.576.228l-.3.3v-3.216h.864v7.488c0 .224-.08.416-.24.576a1.705 1.705 0 0 1-.6.372 4.094 4.094 0 0 1-.792.192c-.28.048-.544.072-.792.072zm.012-.792c.416 0 .776-.048 1.08-.144.312-.096.468-.216.468-.36v-3.756a2.8 2.8 0 0 0-.804-.312 3.228 3.228 0 0 0-.804-.108c-.432 0-.784.096-1.056.288-.264.184-.46.444-.588.78a3.35 3.35 0 0 0-.18 1.152c0 .432.048.836.144 1.212.096.368.28.668.552.9.272.232.668.348 1.188.348zm6.808.792c-.568 0-1.06-.116-1.476-.348a2.362 2.362 0 0 1-.96-1.068c-.224-.472-.336-1.06-.336-1.764 0-1.032.232-1.804.696-2.316.472-.52 1.116-.78 1.932-.78.64 0 1.152.144 1.536.432.392.288.672.676.84 1.164.168.488.248 1.04.24 1.656h-4.812l.06-.792h4.188l-.336.12c-.024-.6-.176-1.048-.456-1.344-.272-.296-.692-.444-1.26-.444-.392 0-.72.072-.984.216-.256.144-.448.396-.576.756-.128.352-.192.848-.192 1.488 0 .728.168 1.284.504 1.668.344.376.824.564 1.44.564.296 0 .568-.02.816-.06.248-.048.476-.112.684-.192a3.55 3.55 0 0 0 .552-.264v.888c-.288.136-.608.24-.96.312a5.575 5.575 0 0 1-1.14.108zm6.491-2.796L167.025 297h-.972l2.424-3.264.516.648zm2.604 2.616h-1.104l-4.38-5.988h1.092l4.392 5.988zm-3-3.348 1.98-2.64h.996l-2.496 3.372-.48-.732zM176.52 297v-8.004h4.908v.816h-4.044v2.76h3.552v.84h-3.552V297h-.864zm6.409 0v-5.508a8.37 8.37 0 0 1 1.548-.468c.392-.08.796-.12 1.212-.12.064 0 .128.008.192.024l.192.048v.768a5.337 5.337 0 0 0-.612-.036c-.192 0-.38.012-.564.036-.184.016-.368.04-.552.072l-.552.096V297h-.864zm6.587.18a3.98 3.98 0 0 1-.804-.084 2.479 2.479 0 0 1-.744-.288 1.655 1.655 0 0 1-.552-.552c-.136-.24-.204-.54-.204-.9 0-.496.092-.892.276-1.188.192-.304.452-.52.78-.648a3.05 3.05 0 0 1 1.152-.204c.328 0 .612.02.852.06.24.04.452.1.636.18.192.072.364.156.516.252l.168.792c-.184-.136-.452-.252-.804-.348a3.928 3.928 0 0 0-1.14-.156c-.504 0-.892.096-1.164.288-.272.192-.408.472-.408.84 0 .296.08.532.24.708.168.176.376.3.624.372.256.072.516.108.78.108.52 0 .912-.036 1.176-.108.272-.08.408-.256.408-.528v-2.748c0-.464-.136-.804-.408-1.02-.272-.216-.66-.324-1.164-.324-.32 0-.66.048-1.02.144a2.41 2.41 0 0 0-.912.432v-.864c.248-.16.58-.28.996-.36a5.85 5.85 0 0 1 1.212-.132c.264 0 .508.028.732.084.224.048.424.124.6.228.176.096.324.224.444.384.128.152.224.332.288.54.072.2.108.428.108.684v2.904c0 .424-.128.74-.384.948-.248.208-.576.344-.984.408-.4.064-.832.096-1.296.096zm7.089-.084c-.32 0-.648-.04-.984-.12a2.574 2.574 0 0 1-.912-.456c-.272-.224-.492-.54-.66-.948-.168-.408-.252-.932-.252-1.572s.084-1.16.252-1.56c.168-.408.388-.724.66-.948.28-.224.584-.376.912-.456.336-.088.664-.132.984-.132a4.83 4.83 0 0 1 1.776.336v.828a4.186 4.186 0 0 0-.816-.252 4.395 4.395 0 0 0-.864-.084c-.712 0-1.232.18-1.56.54-.32.36-.48.936-.48 1.728 0 .8.16 1.38.48 1.74.328.352.848.528 1.56.528.296 0 .584-.028.864-.084.28-.056.552-.14.816-.252v.84a5.234 5.234 0 0 1-1.776.324zm5.282 0c-.424 0-.78-.128-1.068-.384-.288-.264-.432-.652-.432-1.164v-3.744h-1.044v-.792h1.044v-1.692h.864v1.692h1.548v.792h-1.548v3.468c0 .336.052.588.156.756.104.168.316.252.636.252.144 0 .284-.012.42-.036a1.85 1.85 0 0 0 .336-.108v.816c-.112.04-.256.072-.432.096a2.568 2.568 0 0 1-.48.048zm4.935.084c-.936 0-1.632-.276-2.088-.828-.448-.56-.672-1.336-.672-2.328 0-1.04.236-1.82.708-2.34.48-.52 1.156-.78 2.028-.78.648 0 1.176.132 1.584.396.408.256.708.62.9 1.092.192.464.288 1.008.288 1.632 0 .984-.24 1.756-.72 2.316-.472.56-1.148.84-2.028.84zm-.012-.792c.488 0 .868-.104 1.14-.312.272-.216.464-.5.576-.852.12-.36.18-.76.18-1.2 0-.472-.06-.88-.18-1.224a1.57 1.57 0 0 0-.6-.816c-.272-.192-.644-.288-1.116-.288-.48 0-.856.104-1.128.312a1.73 1.73 0 0 0-.588.84 3.794 3.794 0 0 0-.168 1.176c0 .704.14 1.276.42 1.716.28.432.768.648 1.464.648zm6.736.78c-.176 0-.376-.024-.6-.072a5.767 5.767 0 0 1-.636-.18 4.615 4.615 0 0 1-.552-.228l.3-.3v3.216h-.864v-7.512c0-.248.076-.448.228-.6.16-.152.364-.268.612-.348.248-.088.512-.148.792-.18.28-.04.544-.06.792-.06.48 0 .932.1 1.356.3.424.2.768.54 1.032 1.02.264.472.396 1.116.396 1.932 0 .616-.112 1.152-.336 1.608a2.378 2.378 0 0 1-.96 1.044c-.424.24-.944.36-1.56.36zm0-.792c.44 0 .8-.092 1.08-.276a1.76 1.76 0 0 0 .648-.792 2.9 2.9 0 0 0 .216-1.152c0-.432-.048-.836-.144-1.212a1.661 1.661 0 0 0-.552-.9c-.272-.232-.668-.348-1.188-.348-.416 0-.78.048-1.092.144-.304.096-.456.232-.456.408v3.708c.248.144.496.252.744.324.248.064.496.096.744.096zm6.988.804c-.528 0-.98-.092-1.356-.276a1.957 1.957 0 0 1-.864-.804c-.192-.352-.288-.784-.288-1.296v-3.792h.864v3.6c0 .608.132 1.056.396 1.344.272.28.688.42 1.248.42s.972-.14 1.236-.42c.272-.288.408-.736.408-1.344v-3.6h.864v3.792c0 .76-.22 1.348-.66 1.764-.432.408-1.048.612-1.848.612zm6.122 0c-.432 0-.796-.044-1.092-.132a5.513 5.513 0 0 1-.9-.372v-.912c.248.136.468.252.66.348.192.096.388.168.588.216.2.04.428.06.684.06.4 0 .724-.088.972-.264.256-.176.384-.404.384-.684 0-.224-.064-.396-.192-.516a1.43 1.43 0 0 0-.468-.3l-.6-.252a33.066 33.066 0 0 1-.708-.204 3.426 3.426 0 0 1-.648-.3 1.575 1.575 0 0 1-.468-.48c-.12-.2-.18-.456-.18-.768 0-.304.06-.564.18-.78a1.64 1.64 0 0 1 .492-.528c.2-.144.424-.248.672-.312.248-.064.496-.096.744-.096.36 0 .668.048.924.144.256.096.52.204.792.324v.864a8.804 8.804 0 0 0-.816-.384 2.132 2.132 0 0 0-.852-.156 1.91 1.91 0 0 0-.888.204c-.256.128-.384.328-.384.6 0 .224.064.404.192.54.136.128.312.232.528.312.216.072.448.144.696.216.2.064.408.136.624.216.216.072.416.172.6.3.184.12.332.28.444.48.12.2.18.456.18.768 0 .424-.108.776-.324 1.056a1.899 1.899 0 0 1-.828.6 2.75 2.75 0 0 1-1.008.192zm9.145-.084c-.424 0-.78-.128-1.068-.384-.288-.264-.432-.652-.432-1.164v-3.744h-1.044v-.792h1.044v-1.692h.864v1.692h1.548v.792h-1.548v3.468c0 .336.052.588.156.756.104.168.316.252.636.252.144 0 .284-.012.42-.036a1.85 1.85 0 0 0 .336-.108v.816c-.112.04-.256.072-.432.096a2.568 2.568 0 0 1-.48.048zm4.875-2.712L238.708 297h-.972l2.424-3.264.516.648zM243.28 297h-1.104l-4.38-5.988h1.092L243.28 297zm-3-3.348 1.98-2.64h.996l-2.496 3.372-.48-.732z" fill="#231F20"/>
    <path fill="#fff" d="M462.5 277h88v30h-88z"/>
    <path d="M471.868 297.096c-1.232 0-2.16-.344-2.784-1.032-.616-.688-.924-1.712-.924-3.072s.308-2.384.924-3.072c.624-.688 1.552-1.032 2.784-1.032.424 0 .84.052 1.248.156.408.104.804.248 1.188.432v.828a4.743 4.743 0 0 0-1.14-.444 4.66 4.66 0 0 0-1.2-.156c-.672 0-1.224.116-1.656.348-.424.232-.74.592-.948 1.08-.2.48-.3 1.1-.3 1.86s.1 1.384.3 1.872c.208.48.524.836.948 1.068.432.232.984.348 1.656.348.408 0 .808-.048 1.2-.144a4.743 4.743 0 0 0 1.14-.444v.828c-.256.12-.52.224-.792.312a4.658 4.658 0 0 1-.816.192 4.755 4.755 0 0 1-.828.072zm6.121.084a3.98 3.98 0 0 1-.804-.084 2.479 2.479 0 0 1-.744-.288 1.655 1.655 0 0 1-.552-.552c-.136-.24-.204-.54-.204-.9 0-.496.092-.892.276-1.188.192-.304.452-.52.78-.648a3.05 3.05 0 0 1 1.152-.204c.328 0 .612.02.852.06.24.04.452.1.636.18.192.072.364.156.516.252l.168.792c-.184-.136-.452-.252-.804-.348a3.928 3.928 0 0 0-1.14-.156c-.504 0-.892.096-1.164.288-.272.192-.408.472-.408.84 0 .296.08.532.24.708.168.176.376.3.624.372.256.072.516.108.78.108.52 0 .912-.036 1.176-.108.272-.08.408-.256.408-.528v-2.748c0-.464-.136-.804-.408-1.02-.272-.216-.66-.324-1.164-.324-.32 0-.66.048-1.02.144a2.41 2.41 0 0 0-.912.432v-.864c.248-.16.58-.28.996-.36a5.85 5.85 0 0 1 1.212-.132c.264 0 .508.028.732.084.224.048.424.124.6.228.176.096.324.224.444.384.128.152.224.332.288.54.072.2.108.428.108.684v2.904c0 .424-.128.74-.384.948-.248.208-.576.344-.984.408-.4.064-.832.096-1.296.096zm6.932-.012c-.176 0-.376-.024-.6-.072a5.767 5.767 0 0 1-.636-.18 4.615 4.615 0 0 1-.552-.228l.3-.3v3.216h-.864v-7.512c0-.248.076-.448.228-.6.16-.152.364-.268.612-.348.248-.088.512-.148.792-.18.28-.04.544-.06.792-.06.48 0 .932.1 1.356.3.424.2.768.54 1.032 1.02.264.472.396 1.116.396 1.932 0 .616-.112 1.152-.336 1.608a2.378 2.378 0 0 1-.96 1.044c-.424.24-.944.36-1.56.36zm0-.792c.44 0 .8-.092 1.08-.276a1.76 1.76 0 0 0 .648-.792 2.9 2.9 0 0 0 .216-1.152c0-.432-.048-.836-.144-1.212a1.661 1.661 0 0 0-.552-.9c-.272-.232-.668-.348-1.188-.348-.416 0-.78.048-1.092.144-.304.096-.456.232-.456.408v3.708c.248.144.496.252.744.324.248.064.496.096.744.096zm6.364.72c-.424 0-.78-.128-1.068-.384-.288-.264-.432-.652-.432-1.164v-3.744h-1.044v-.792h1.044v-1.692h.864v1.692h1.548v.792h-1.548v3.468c0 .336.052.588.156.756.104.168.316.252.636.252.144 0 .284-.012.42-.036a1.85 1.85 0 0 0 .336-.108v.816c-.112.04-.256.072-.432.096a2.568 2.568 0 0 1-.48.048zm4.984.084c-.528 0-.98-.092-1.356-.276a1.957 1.957 0 0 1-.864-.804c-.192-.352-.288-.784-.288-1.296v-3.792h.864v3.6c0 .608.132 1.056.396 1.344.272.28.688.42 1.248.42s.972-.14 1.236-.42c.272-.288.408-.736.408-1.344v-3.6h.864v3.792c0 .76-.22 1.348-.66 1.764-.432.408-1.048.612-1.848.612zm4.429-.18v-5.508a8.37 8.37 0 0 1 1.548-.468c.392-.08.796-.12 1.212-.12.064 0 .128.008.192.024l.192.048v.768a5.337 5.337 0 0 0-.612-.036c-.192 0-.38.012-.564.036-.184.016-.368.04-.552.072l-.552.096V297h-.864zm6.574.18c-.568 0-1.06-.116-1.476-.348a2.362 2.362 0 0 1-.96-1.068c-.224-.472-.336-1.06-.336-1.764 0-1.032.232-1.804.696-2.316.472-.52 1.116-.78 1.932-.78.64 0 1.152.144 1.536.432.392.288.672.676.84 1.164.168.488.248 1.04.24 1.656h-4.812l.06-.792h4.188l-.336.12c-.024-.6-.176-1.048-.456-1.344-.272-.296-.692-.444-1.26-.444-.392 0-.72.072-.984.216-.256.144-.448.396-.576.756-.128.352-.192.848-.192 1.488 0 .728.168 1.284.504 1.668.344.376.824.564 1.44.564.296 0 .568-.02.816-.06.248-.048.476-.112.684-.192a3.55 3.55 0 0 0 .552-.264v.888c-.288.136-.608.24-.96.312a5.575 5.575 0 0 1-1.14.108zm9.263 0c-.432 0-.796-.044-1.092-.132a5.513 5.513 0 0 1-.9-.372v-.912c.248.136.468.252.66.348.192.096.388.168.588.216.2.04.428.06.684.06.4 0 .724-.088.972-.264.256-.176.384-.404.384-.684 0-.224-.064-.396-.192-.516a1.43 1.43 0 0 0-.468-.3l-.6-.252a33.066 33.066 0 0 1-.708-.204 3.426 3.426 0 0 1-.648-.3 1.575 1.575 0 0 1-.468-.48c-.12-.2-.18-.456-.18-.768 0-.304.06-.564.18-.78a1.64 1.64 0 0 1 .492-.528c.2-.144.424-.248.672-.312.248-.064.496-.096.744-.096.36 0 .668.048.924.144.256.096.52.204.792.324v.864a8.804 8.804 0 0 0-.816-.384 2.132 2.132 0 0 0-.852-.156 1.91 1.91 0 0 0-.888.204c-.256.128-.384.328-.384.6 0 .224.064.404.192.54.136.128.312.232.528.312.216.072.448.144.696.216.2.064.408.136.624.216.216.072.416.172.6.3.184.12.332.28.444.48.12.2.18.456.18.768 0 .424-.108.776-.324 1.056a1.899 1.899 0 0 1-.828.6 2.75 2.75 0 0 1-1.008.192zm5.664-.084c-.424 0-.78-.128-1.068-.384-.288-.264-.432-.652-.432-1.164v-3.744h-1.044v-.792h1.044v-1.692h.864v1.692h1.548v.792h-1.548v3.468c0 .336.052.588.156.756.104.168.316.252.636.252.144 0 .284-.012.42-.036a1.85 1.85 0 0 0 .336-.108v.816c-.112.04-.256.072-.432.096a2.568 2.568 0 0 1-.48.048zm2.476-.096v-5.508a8.37 8.37 0 0 1 1.548-.468c.392-.08.796-.12 1.212-.12.064 0 .128.008.192.024l.192.048v.768a5.337 5.337 0 0 0-.612-.036c-.192 0-.38.012-.564.036-.184.016-.368.04-.552.072l-.552.096V297h-.864zm4.571 0v-5.988h.864V297h-.864zm-.048-7.056v-.948h.96v.948h-.96zm2.883 1.548c.192-.096.388-.18.588-.252a4.65 4.65 0 0 1 .624-.192 6.081 6.081 0 0 1 1.32-.144c.584 0 1.048.088 1.392.264.344.168.592.416.744.744.16.328.24.724.24 1.188v3.9h-.864v-3.9c0-.144-.02-.296-.06-.456-.032-.16-.1-.312-.204-.456a1.032 1.032 0 0 0-.48-.36c-.216-.096-.504-.144-.864-.144-.248 0-.504.02-.768.06-.264.04-.532.1-.804.18V297h-.864v-5.508zm9.268 5.688c-.616 0-1.128-.12-1.536-.36-.4-.248-.7-.596-.9-1.044-.2-.456-.3-.992-.3-1.608 0-.688.092-1.244.276-1.668.184-.432.42-.76.708-.984a2.44 2.44 0 0 1 .96-.468 4.201 4.201 0 0 1 1.02-.132c.376 0 .732.052 1.068.156.344.096.624.252.84.468.224.216.336.504.336.864v4.848c0 .24-.036.484-.108.732a1.703 1.703 0 0 1-.396.684c-.184.216-.448.388-.792.516-.336.128-.772.192-1.308.192-.344 0-.66-.032-.948-.096-.288-.064-.54-.124-.756-.18v-.816l.432.108c.168.048.348.088.54.12.2.032.412.048.636.048.544 0 .944-.068 1.2-.204.264-.128.436-.292.516-.492.08-.192.12-.388.12-.588v-.876l.3.3a3.45 3.45 0 0 1-.576.228 7.055 7.055 0 0 1-.708.18c-.24.048-.448.072-.624.072zm0-.792c.256 0 .524-.032.804-.096a3.08 3.08 0 0 0 .804-.324v-3.444c0-.224-.064-.392-.192-.504a.922.922 0 0 0-.492-.24 2.984 2.984 0 0 0-.672-.072c-.584 0-1.024.116-1.32.348a1.643 1.643 0 0 0-.6.9 4.53 4.53 0 0 0-.156 1.212c0 .656.14 1.192.42 1.608.28.408.748.612 1.404.612z" fill="#231F20"/>
    <path fill="#fff" d="M296.5 345h105v26h-105z"/>
    <path d="M304.788 363.12c-.4 0-.74-.028-1.02-.084a3.352 3.352 0 0 1-.756-.24 20.01 20.01 0 0 1-.732-.36v-.936c.256.216.6.408 1.032.576.432.168.936.252 1.512.252.608 0 1.048-.128 1.32-.384.28-.264.42-.596.42-.996 0-.336-.092-.604-.276-.804a2.028 2.028 0 0 0-.708-.504 12.017 12.017 0 0 0-.912-.384 33.556 33.556 0 0 1-.816-.3 3.5 3.5 0 0 1-.72-.408 1.83 1.83 0 0 1-.516-.636c-.128-.264-.192-.592-.192-.984 0-.216.04-.444.12-.684.088-.24.224-.464.408-.672.192-.208.444-.376.756-.504.32-.128.708-.192 1.164-.192.312 0 .576.024.792.072.224.04.436.104.636.192.2.08.424.18.672.3v.888c-.208-.12-.408-.228-.6-.324a2.411 2.411 0 0 0-.624-.24 3.057 3.057 0 0 0-.828-.096c-.392 0-.708.056-.948.168-.232.112-.404.26-.516.444-.104.184-.156.38-.156.588 0 .328.072.588.216.78.152.192.36.352.624.48.272.12.584.24.936.36.28.096.56.204.84.324.28.112.532.256.756.432.232.168.416.384.552.648.144.256.216.576.216.96 0 .36-.08.716-.24 1.068-.16.344-.432.632-.816.864-.384.224-.916.336-1.596.336zm6.8.06c-.568 0-1.06-.116-1.476-.348a2.362 2.362 0 0 1-.96-1.068c-.224-.472-.336-1.06-.336-1.764 0-1.032.232-1.804.696-2.316.472-.52 1.116-.78 1.932-.78.64 0 1.152.144 1.536.432.392.288.672.676.84 1.164.168.488.248 1.04.24 1.656h-4.812l.06-.792h4.188l-.336.12c-.024-.6-.176-1.048-.456-1.344-.272-.296-.692-.444-1.26-.444-.392 0-.72.072-.984.216-.256.144-.448.396-.576.756-.128.352-.192.848-.192 1.488 0 .728.168 1.284.504 1.668.344.376.824.564 1.44.564.296 0 .568-.02.816-.06.248-.048.476-.112.684-.192a3.55 3.55 0 0 0 .552-.264v.888c-.288.136-.608.24-.96.312a5.575 5.575 0 0 1-1.14.108zm4.091-5.688c.192-.096.388-.18.588-.252a4.65 4.65 0 0 1 .624-.192 6.081 6.081 0 0 1 1.32-.144c.584 0 1.048.088 1.392.264.344.168.592.416.744.744.16.328.24.724.24 1.188v3.9h-.864v-3.9c0-.144-.02-.296-.06-.456-.032-.16-.1-.312-.204-.456a1.032 1.032 0 0 0-.48-.36c-.216-.096-.504-.144-.864-.144-.248 0-.504.02-.768.06-.264.04-.532.1-.804.18V363h-.864v-5.508zm9.316 5.688c-.288 0-.592-.044-.912-.132a2.447 2.447 0 0 1-.912-.456c-.28-.232-.512-.56-.696-.984-.176-.432-.264-.992-.264-1.68 0-.928.224-1.66.672-2.196.456-.544 1.144-.816 2.064-.816.176 0 .384.024.624.072.24.048.476.108.708.18.232.072.424.148.576.228l-.3.3v-3.216h.864v7.488c0 .224-.08.416-.24.576a1.705 1.705 0 0 1-.6.372 4.094 4.094 0 0 1-.792.192c-.28.048-.544.072-.792.072zm.012-.792c.416 0 .776-.048 1.08-.144.312-.096.468-.216.468-.36v-3.756a2.8 2.8 0 0 0-.804-.312 3.228 3.228 0 0 0-.804-.108c-.432 0-.784.096-1.056.288-.264.184-.46.444-.588.78a3.35 3.35 0 0 0-.18 1.152c0 .432.048.836.144 1.212.096.368.28.668.552.9.272.232.668.348 1.188.348zm9.808.612-2.532-5.988h.924l2.208 5.244-.192.048 2.148-5.292h.864L335.691 363h-.876zm6.635.18a3.98 3.98 0 0 1-.804-.084 2.479 2.479 0 0 1-.744-.288 1.655 1.655 0 0 1-.552-.552c-.136-.24-.204-.54-.204-.9 0-.496.092-.892.276-1.188.192-.304.452-.52.78-.648a3.05 3.05 0 0 1 1.152-.204c.328 0 .612.02.852.06.24.04.452.1.636.18.192.072.364.156.516.252l.168.792c-.184-.136-.452-.252-.804-.348a3.928 3.928 0 0 0-1.14-.156c-.504 0-.892.096-1.164.288-.272.192-.408.472-.408.84 0 .296.08.532.24.708.168.176.376.3.624.372.256.072.516.108.78.108.52 0 .912-.036 1.176-.108.272-.08.408-.256.408-.528v-2.748c0-.464-.136-.804-.408-1.02-.272-.216-.66-.324-1.164-.324-.32 0-.66.048-1.02.144a2.41 2.41 0 0 0-.912.432v-.864c.248-.16.58-.28.996-.36a5.85 5.85 0 0 1 1.212-.132c.264 0 .508.028.732.084.224.048.424.124.6.228.176.096.324.224.444.384.128.152.224.332.288.54.072.2.108.428.108.684v2.904c0 .424-.128.74-.384.948-.248.208-.576.344-.984.408-.4.064-.832.096-1.296.096zm5.444-.18h-.864v-8.268h.864V363zm1.973 0v-5.988h.864V363h-.864zm-.048-7.056v-.948h.96v.948h-.96zm5.367 7.236c-.288 0-.592-.044-.912-.132a2.447 2.447 0 0 1-.912-.456c-.28-.232-.512-.56-.696-.984-.176-.432-.264-.992-.264-1.68 0-.928.224-1.66.672-2.196.456-.544 1.144-.816 2.064-.816.176 0 .384.024.624.072.24.048.476.108.708.18.232.072.424.148.576.228l-.3.3v-3.216h.864v7.488c0 .224-.08.416-.24.576a1.705 1.705 0 0 1-.6.372 4.094 4.094 0 0 1-.792.192c-.28.048-.544.072-.792.072zm.012-.792c.416 0 .776-.048 1.08-.144.312-.096.468-.216.468-.36v-3.756a2.8 2.8 0 0 0-.804-.312 3.228 3.228 0 0 0-.804-.108c-.432 0-.784.096-1.056.288-.264.184-.46.444-.588.78a3.35 3.35 0 0 0-.18 1.152c0 .432.048.836.144 1.212.096.368.28.668.552.9.272.232.668.348 1.188.348zm6.4.792a3.98 3.98 0 0 1-.804-.084 2.479 2.479 0 0 1-.744-.288 1.655 1.655 0 0 1-.552-.552c-.136-.24-.204-.54-.204-.9 0-.496.092-.892.276-1.188.192-.304.452-.52.78-.648a3.05 3.05 0 0 1 1.152-.204c.328 0 .612.02.852.06.24.04.452.1.636.18.192.072.364.156.516.252l.168.792c-.184-.136-.452-.252-.804-.348a3.928 3.928 0 0 0-1.14-.156c-.504 0-.892.096-1.164.288-.272.192-.408.472-.408.84 0 .296.08.532.24.708.168.176.376.3.624.372.256.072.516.108.78.108.52 0 .912-.036 1.176-.108.272-.08.408-.256.408-.528v-2.748c0-.464-.136-.804-.408-1.02-.272-.216-.66-.324-1.164-.324-.32 0-.66.048-1.02.144a2.41 2.41 0 0 0-.912.432v-.864c.248-.16.58-.28.996-.36a5.85 5.85 0 0 1 1.212-.132c.264 0 .508.028.732.084.224.048.424.124.6.228.176.096.324.224.444.384.128.152.224.332.288.54.072.2.108.428.108.684v2.904c0 .424-.128.74-.384.948-.248.208-.576.344-.984.408-.4.064-.832.096-1.296.096zm6.465-.084c-.424 0-.78-.128-1.068-.384-.288-.264-.432-.652-.432-1.164v-3.744h-1.044v-.792h1.044v-1.692h.864v1.692h1.548v.792h-1.548v3.468c0 .336.052.588.156.756.104.168.316.252.636.252.144 0 .284-.012.42-.036a1.85 1.85 0 0 0 .336-.108v.816c-.112.04-.256.072-.432.096a2.568 2.568 0 0 1-.48.048zm4.947.084c-.568 0-1.06-.116-1.476-.348a2.362 2.362 0 0 1-.96-1.068c-.224-.472-.336-1.06-.336-1.764 0-1.032.232-1.804.696-2.316.472-.52 1.116-.78 1.932-.78.64 0 1.152.144 1.536.432.392.288.672.676.84 1.164.168.488.248 1.04.24 1.656h-4.812l.06-.792h4.188l-.336.12c-.024-.6-.176-1.048-.456-1.344-.272-.296-.692-.444-1.26-.444-.392 0-.72.072-.984.216-.256.144-.448.396-.576.756-.128.352-.192.848-.192 1.488 0 .728.168 1.284.504 1.668.344.376.824.564 1.44.564.296 0 .568-.02.816-.06.248-.048.476-.112.684-.192a3.55 3.55 0 0 0 .552-.264v.888c-.288.136-.608.24-.96.312a5.575 5.575 0 0 1-1.14.108zm6.575 0c-.288 0-.592-.044-.912-.132a2.447 2.447 0 0 1-.912-.456c-.28-.232-.512-.56-.696-.984-.176-.432-.264-.992-.264-1.68 0-.928.224-1.66.672-2.196.456-.544 1.144-.816 2.064-.816.176 0 .384.024.624.072.24.048.476.108.708.18.232.072.424.148.576.228l-.3.3v-3.216h.864v7.488c0 .224-.08.416-.24.576a1.705 1.705 0 0 1-.6.372 4.094 4.094 0 0 1-.792.192c-.28.048-.544.072-.792.072zm.012-.792c.416 0 .776-.048 1.08-.144.312-.096.468-.216.468-.36v-3.756a2.8 2.8 0 0 0-.804-.312 3.228 3.228 0 0 0-.804-.108c-.432 0-.784.096-1.056.288-.264.184-.46.444-.588.78a3.35 3.35 0 0 0-.18 1.152c0 .432.048.836.144 1.212.096.368.28.668.552.9.272.232.668.348 1.188.348zm9.7.708c-.424 0-.78-.128-1.068-.384-.288-.264-.432-.652-.432-1.164v-3.744h-1.044v-.792h1.044v-1.692h.864v1.692h1.548v.792h-1.548v3.468c0 .336.052.588.156.756.104.168.316.252.636.252.144 0 .284-.012.42-.036a1.85 1.85 0 0 0 .336-.108v.816c-.112.04-.256.072-.432.096a2.568 2.568 0 0 1-.48.048zm4.876-2.712L391.205 363h-.972l2.424-3.264.516.648zm2.604 2.616h-1.104l-4.38-5.988h1.092l4.392 5.988zm-3-3.348 1.98-2.64h.996l-2.496 3.372-.48-.732z" fill="#231F20"/>
    <path fill="#fff" d="M328.5 475h41v26h-41z"/>
    <path d="M336.788 493.12c-.4 0-.74-.028-1.02-.084a3.352 3.352 0 0 1-.756-.24 20.01 20.01 0 0 1-.732-.36v-.936c.256.216.6.408 1.032.576.432.168.936.252 1.512.252.608 0 1.048-.128 1.32-.384.28-.264.42-.596.42-.996 0-.336-.092-.604-.276-.804a2.028 2.028 0 0 0-.708-.504 12.017 12.017 0 0 0-.912-.384 33.556 33.556 0 0 1-.816-.3 3.5 3.5 0 0 1-.72-.408 1.83 1.83 0 0 1-.516-.636c-.128-.264-.192-.592-.192-.984 0-.216.04-.444.12-.684.088-.24.224-.464.408-.672.192-.208.444-.376.756-.504.32-.128.708-.192 1.164-.192.312 0 .576.024.792.072.224.04.436.104.636.192.2.08.424.18.672.3v.888c-.208-.12-.408-.228-.6-.324a2.411 2.411 0 0 0-.624-.24 3.057 3.057 0 0 0-.828-.096c-.392 0-.708.056-.948.168-.232.112-.404.26-.516.444-.104.184-.156.38-.156.588 0 .328.072.588.216.78.152.192.36.352.624.48.272.12.584.24.936.36.28.096.56.204.84.324.28.112.532.256.756.432.232.168.416.384.552.648.144.256.216.576.216.96 0 .36-.08.716-.24 1.068-.16.344-.432.632-.816.864-.384.224-.916.336-1.596.336zm6.8.06c-.568 0-1.06-.116-1.476-.348a2.362 2.362 0 0 1-.96-1.068c-.224-.472-.336-1.06-.336-1.764 0-1.032.232-1.804.696-2.316.472-.52 1.116-.78 1.932-.78.64 0 1.152.144 1.536.432.392.288.672.676.84 1.164.168.488.248 1.04.24 1.656h-4.812l.06-.792h4.188l-.336.12c-.024-.6-.176-1.048-.456-1.344-.272-.296-.692-.444-1.26-.444-.392 0-.72.072-.984.216-.256.144-.448.396-.576.756-.128.352-.192.848-.192 1.488 0 .728.168 1.284.504 1.668.344.376.824.564 1.44.564.296 0 .568-.02.816-.06.248-.048.476-.112.684-.192a3.55 3.55 0 0 0 .552-.264v.888c-.288.136-.608.24-.96.312a5.575 5.575 0 0 1-1.14.108zm4.091-.18v-5.508a8.37 8.37 0 0 1 1.548-.468c.392-.08.796-.12 1.212-.12.064 0 .128.008.192.024l.192.048v.768a5.337 5.337 0 0 0-.612-.036c-.192 0-.38.012-.564.036-.184.016-.368.04-.552.072l-.552.096V493h-.864zm6.515 0-2.532-5.988h.924l2.208 5.244-.192.048 2.148-5.292h.864L355.07 493h-.876zm6.855.18c-.568 0-1.06-.116-1.476-.348a2.362 2.362 0 0 1-.96-1.068c-.224-.472-.336-1.06-.336-1.764 0-1.032.232-1.804.696-2.316.472-.52 1.116-.78 1.932-.78.64 0 1.152.144 1.536.432.392.288.672.676.84 1.164.168.488.248 1.04.24 1.656h-4.812l.06-.792h4.188l-.336.12c-.024-.6-.176-1.048-.456-1.344-.272-.296-.692-.444-1.26-.444-.392 0-.72.072-.984.216-.256.144-.448.396-.576.756-.128.352-.192.848-.192 1.488 0 .728.168 1.284.504 1.668.344.376.824.564 1.44.564.296 0 .568-.02.816-.06.248-.048.476-.112.684-.192a3.55 3.55 0 0 0 .552-.264v.888c-.288.136-.608.24-.96.312a5.575 5.575 0 0 1-1.14.108z" fill="#231F20"/>
</svg>
