<svg width="53" height="50" viewBox="0 0 53 50" fill="none" xmlns="http://www.w3.org/2000/svg">
    <path fill-rule="evenodd" clip-rule="evenodd" d="M17.993 45.254c.212 1.866 1.35 3.872 2.557 4.51.766.405 1.784.268 2.26-.306.134-.161.133-.196-.01-.196-.352 0-1.688-.736-2.075-1.143-.462-.487-.789-1.196-.789-1.71 0-.615.36-1.604.836-2.3.252-.37 1.173-1.488 2.045-2.487.873-.999 1.85-2.174 2.17-2.612 1.215-1.656 2.246-4.207 2.844-7.032.153-.723.303-1.4.334-1.503.03-.103.354.636.718 1.644 1.28 3.54 2.744 6.146 4.664 8.294l1.893 2.123c1.493 1.678 2.16 3.38 1.78 4.534-.326.984-1.535 1.933-2.474 1.94-.476.002-.505.1-.145.487.841.903 2.353.565 3.607-.808 1.489-1.629 1.858-3.619 1.084-5.844-.38-1.094-.846-1.862-2.678-4.416-1.688-2.353-2.547-4.045-3.587-7.06-.39-1.126-.683-2.072-.654-2.101.03-.03.995.852 2.145 1.958 4.518 4.345 5.879 5.23 10.767 7.004 2.485.902 3.735 1.527 4.111 2.055.436.613.456 1.675.047 2.51-.39.796-1.265 1.654-2.265 2.218-.707.4-.714.409-.423.57.511.283 1.606.212 2.337-.152 2.324-1.158 3.357-4.188 2.203-6.464-.428-.845-1.476-1.935-2.555-2.66-.473-.317-1.808-1.063-2.966-1.657-2.544-1.304-3.454-1.858-4.63-2.815-.759-.619-2.784-2.787-2.896-3.1-.02-.055.629-.134 1.44-.175 2.99-.153 5.735-1.06 9.404-3.56 2.203-1.501 3.598-5.694 3.584-7.5-.014-1.806-3.097-3.462-5-2.5-1.902.962-2.391 2.5-2.391 5l-.118.414c-.559 1.971-.974 3.435-1.951 3.901-1.515.722-3.264.221-4.79-.54-1.459-.73-2.023-1.892-1.72-3.543.084-.463.566-1.94 1.07-3.284 1.432-3.815 1.823-5.751 1.576-7.79-.3-2.46-1.233-4.368-2.996-6.119-1.136-1.129-2.055-1.744-3.42-2.29-1.48-.592-2.402-.755-4.233-.749-2.008.007-3.528.347-5.26 1.176-2.147 1.028-3.59 2.428-4.574 4.438-.732 1.493-.977 2.553-.988 4.258-.01 1.685.204 2.675 1.138 5.247 1.176 3.24 1.647 5.795 1.303 7.06C19.763 24.23 17.063 25 14.999 25c-2.5 0-5.24 0-6.965-.685C6.309 23.631 5.839 21.25 5.84 20c0-.422.14-.908.293-1.44.3-1.044.65-2.27.113-3.56C5.288 12.704 0 13.198 0 17.5s2.497 6.25 2.497 6.25 1.32 2.276 6.248 3.75c3.502 1.047 5.266 1.165 6.948 1.277.686.046 1.358.09 2.128.197.578.08 1.237.183 1.465.228l.415.083-1.605 1.262c-.882.694-1.959 1.501-2.392 1.793-1.035.698-2.94 1.638-4.347 2.143-3.054 1.099-4.805 2.583-5.447 4.616a5.627 5.627 0 0 0-.07 3.005c.515 1.932 2.364 3.654 3.92 3.65.539-.002 1.054-.163.905-.283a17.43 17.43 0 0 0-.497-.342c-3.46-2.323-3.457-4.687.007-6.243.444-.199 1.737-.687 2.873-1.084 2.363-.826 3.89-1.546 5.204-2.455 1.138-.787 3.248-2.682 4.81-4.319.65-.683 1.145-1.142 1.098-1.02-.046.12-.233.882-.414 1.69-.927 4.136-1.279 4.91-3.405 7.5-1.684 2.052-2.55 4.286-2.348 6.056zm4.573-31.63a1.277 1.277 0 1 0 0-2.555 1.277 1.277 0 0 0 0 2.555zm7.665 0a1.277 1.277 0 1 0 0-2.555 1.277 1.277 0 0 0 0 2.555zm19.89 4.927a1.277 1.277 0 1 1-2.555 0 1.277 1.277 0 0 1 2.555 0zM3.953 17.395a1.277 1.277 0 1 0 0-2.554 1.277 1.277 0 0 0 0 2.554z" fill="#484848"/>
</svg>
